<?xml version="1.0" encoding="utf-8"?>
<!-- Generator: Adobe Illustrator 16.0.0, SVG Export Plug-In . SVG Version: 6.00 Build 0)  -->
<!DOCTYPE svg PUBLIC "-//W3C//DTD SVG 1.1//EN" "http://www.w3.org/Graphics/SVG/1.1/DTD/svg11.dtd">
<svg version="1.1" id="Layer_1" xmlns="http://www.w3.org/2000/svg" xmlns:xlink="http://www.w3.org/1999/xlink" x="0px" y="0px"
	 width="841.89px" height="327px" viewBox="0 0 841.89 327" enable-background="new 0 0 841.89 327" xml:space="preserve">
<path fill="#FFFFFF" d="M630.05,29.668c-1.918,0-3.492,0.366-4.764,1.113c-1.27,0.731-2.271,1.708-3.027,2.919
	c-0.747,1.195-1.285,2.564-1.59,4.09c-0.303,1.525-0.463,3.091-0.463,4.69v16.502h-5.4V24.099h5.4v8.293h0.146
	c0.429-0.953,0.99-1.966,1.674-3.04c0.696-1.078,1.515-2.051,2.456-2.958c0.938-0.891,2.013-1.623,3.198-2.21
	c1.197-0.583,2.491-0.88,3.91-0.88v6.364H630.05z M605.304,45.131c0,2.324-0.329,4.266-0.988,5.842
	c-0.648,1.572-1.518,2.869-2.592,3.892c-1.074,1.027-2.283,1.821-3.626,2.385c-1.343,0.561-2.711,0.961-4.092,1.219
	c-1.393,0.245-2.725,0.393-3.994,0.439c-1.271,0.05-2.383,0.074-3.311,0.074h-10.979V8.418h10.198c0.952,0,2.04,0.023,3.271,0.074
	c1.223,0.047,2.468,0.195,3.739,0.44c1.258,0.253,2.493,0.634,3.701,1.132c1.21,0.502,2.282,1.199,3.225,2.113
	c0.94,0.907,1.698,2.052,2.272,3.433c0.573,1.382,0.854,3.068,0.854,5.045c0,1.794-0.269,3.358-0.819,4.701
	c-0.549,1.358-1.258,2.507-2.111,3.444c-0.868,0.942-1.821,1.677-2.872,2.211c-1.048,0.541-2.076,0.895-3.076,1.066v0.145
	c1.342,0.233,2.673,0.65,4.007,1.245c1.342,0.6,2.538,1.405,3.602,2.433c1.063,1.023,1.918,2.296,2.59,3.81
	C604.975,41.224,605.304,43.034,605.304,45.131z M596.9,20.946c0-1.942-0.343-3.468-1.015-4.604
	c-0.683-1.132-1.539-1.989-2.576-2.564c-1.038-0.561-2.188-0.927-3.422-1.086c-1.245-0.159-2.415-0.233-3.54-0.233h-4.544v18.004
	h4.544c1.076,0,2.221-0.121,3.457-0.354c1.221-0.241,2.356-0.708,3.406-1.405c1.051-0.681,1.932-1.646,2.641-2.892
	C596.546,24.565,596.9,22.951,596.9,20.946z M598.793,44.925c0-1.623-0.207-3.016-0.622-4.152c-0.417-1.148-0.977-2.113-1.661-2.884
	c-0.697-0.783-1.478-1.39-2.346-1.841c-0.865-0.455-1.771-0.798-2.699-1.027c-0.929-0.222-1.843-0.366-2.724-0.428
	c-0.878-0.062-1.686-0.085-2.394-0.085h-4.544v20.433h4.544c0.708,0,1.516-0.024,2.394-0.074c0.881-0.047,1.795-0.168,2.724-0.377
	c0.928-0.195,1.834-0.514,2.699-0.927c0.868-0.416,1.648-1.004,2.346-1.748c0.685-0.759,1.244-1.685,1.661-2.798
	C598.586,47.906,598.793,46.537,598.793,44.925z M543.377,43.388v-5.157h22.292v5.157H543.377z M536.22,41.909
	c0,2.822-0.305,5.336-0.917,7.547c-0.61,2.226-1.525,4.095-2.771,5.62c-1.234,1.526-2.811,2.701-4.729,3.507
	c-1.905,0.817-4.164,1.218-6.767,1.218c-2.602,0-4.838-0.401-6.705-1.218c-1.88-0.806-3.408-1.981-4.604-3.507
	c-1.185-1.525-2.076-3.394-2.651-5.62c-0.573-2.211-0.854-4.725-0.854-7.547c0-2.787,0.28-5.328,0.854-7.597
	c0.575-2.285,1.467-4.238,2.651-5.877c1.196-1.623,2.725-2.892,4.604-3.787c1.867-0.892,4.104-1.343,6.705-1.343
	c2.603,0,4.861,0.452,6.767,1.343c1.919,0.895,3.495,2.164,4.729,3.787c1.245,1.639,2.16,3.592,2.771,5.877
	C535.915,36.581,536.22,39.122,536.22,41.909z M530.137,42.127c0-1.903-0.123-3.811-0.355-5.702
	c-0.243-1.907-0.693-3.604-1.366-5.106c-0.66-1.502-1.589-2.725-2.771-3.667c-1.187-0.938-2.713-1.417-4.607-1.417
	c-1.233,0-2.318,0.222-3.235,0.65c-0.916,0.425-1.699,1.012-2.346,1.771c-0.647,0.744-1.174,1.634-1.576,2.662
	c-0.403,1.027-0.733,2.125-0.965,3.312c-0.244,1.183-0.402,2.401-0.488,3.686c-0.086,1.269-0.123,2.542-0.123,3.811
	c0,1.783,0.099,3.569,0.308,5.328c0.206,1.771,0.621,3.343,1.258,4.752c0.623,1.389,1.513,2.514,2.662,3.382
	c1.147,0.853,2.649,1.281,4.506,1.281c1.895,0,3.421-0.428,4.607-1.281c1.183-0.868,2.111-1.993,2.771-3.382
	c0.673-1.409,1.123-2.982,1.366-4.752C530.014,45.696,530.137,43.91,530.137,42.127z M501.604,49.456
	c0,1.37-0.242,2.662-0.745,3.911c-0.501,1.234-1.282,2.332-2.332,3.286c-1.05,0.949-2.396,1.719-4.043,2.296
	c-1.637,0.572-3.615,0.853-5.899,0.853c-2.406,0-4.385-0.156-5.923-0.487c-1.541-0.319-2.725-0.646-3.555-0.977V52.83
	c0.196,0.12,0.588,0.35,1.196,0.692c0.61,0.343,1.356,0.708,2.26,1.114c0.893,0.389,1.881,0.731,2.967,1.023
	c1.089,0.308,2.199,0.456,3.349,0.456c1.001,0,1.941-0.113,2.833-0.319c0.904-0.218,1.673-0.561,2.333-1.028
	c0.647-0.463,1.173-1.051,1.575-1.744c0.393-0.708,0.586-1.564,0.586-2.568c0-0.875-0.193-1.646-0.586-2.281
	c-0.402-0.649-0.928-1.234-1.613-1.771c-0.682-0.538-1.477-1.062-2.379-1.576c-0.905-0.514-1.87-1.075-2.896-1.662
	c-1.1-0.646-2.211-1.269-3.324-1.868c-1.122-0.588-2.147-1.273-3.064-2.04c-0.915-0.759-1.662-1.65-2.234-2.678
	c-0.574-1.023-0.855-2.281-0.855-3.76c0-3.028,1.001-5.375,2.991-7.021c1.991-1.662,4.971-2.495,8.955-2.495
	c0.927,0,1.807,0.05,2.648,0.148c0.83,0.097,1.589,0.206,2.283,0.354c0.697,0.148,1.309,0.28,1.857,0.417
	c0.551,0.121,1.003,0.229,1.368,0.304v5.215c-0.293-0.16-0.721-0.405-1.306-0.708c-0.588-0.315-1.271-0.623-2.039-0.926
	c-0.771-0.319-1.638-0.588-2.579-0.806c-0.94-0.233-1.917-0.342-2.941-0.342c-0.797,0-1.552,0.082-2.273,0.253
	c-0.733,0.16-1.369,0.417-1.917,0.759c-0.552,0.354-0.991,0.782-1.319,1.308c-0.332,0.525-0.501,1.147-0.501,1.868
	c0,1.051,0.292,1.93,0.879,2.639c0.587,0.721,1.381,1.405,2.395,2.04c1.015,0.646,2.186,1.295,3.543,1.953
	c1.343,0.662,2.771,1.456,4.297,2.382c0.844,0.501,1.626,1.039,2.359,1.611c0.744,0.576,1.379,1.223,1.917,1.942
	c0.537,0.736,0.965,1.565,1.271,2.507C501.446,47.17,501.604,48.249,501.604,49.456z M465.62,58.983v-8.512h-0.146
	c-0.831,1.782-1.636,3.285-2.394,4.48c-0.77,1.21-1.613,2.164-2.529,2.884c-0.915,0.708-1.977,1.222-3.188,1.514
	c-1.197,0.308-2.675,0.452-4.409,0.452c-1.465,0-2.712-0.354-3.763-1.047c-1.049-0.708-1.917-1.587-2.588-2.655
	c-0.685-1.058-1.185-2.222-1.502-3.49c-0.332-1.258-0.489-2.468-0.489-3.616V24.099h5.398v22.573c0,0.927,0.109,1.904,0.317,2.919
	c0.22,1.012,0.562,1.955,1.04,2.81c0.475,0.853,1.122,1.561,1.916,2.114c0.806,0.548,1.784,0.817,2.956,0.817
	c1.074,0,2.04-0.246,2.894-0.732c0.868-0.491,1.64-1.152,2.333-1.992c0.684-0.833,1.283-1.794,1.785-2.896
	c0.5-1.098,0.928-2.246,1.258-3.445c0.33-1.206,0.573-2.428,0.733-3.674c0.157-1.234,0.23-2.421,0.23-3.546V24.099h5.437v34.884
	H465.62z M415.347,58.983V8.418h6.081v46.229h17.749v4.336H415.347z M386.717,41.909c0,2.822-0.306,5.336-0.917,7.547
	c-0.611,2.226-1.528,4.095-2.771,5.62c-1.234,1.526-2.811,2.701-4.729,3.507c-1.905,0.817-4.165,1.218-6.767,1.218
	c-2.601,0-4.837-0.401-6.706-1.218c-1.879-0.806-3.407-1.981-4.604-3.507c-1.185-1.525-2.076-3.394-2.65-5.62
	c-0.574-2.211-0.856-4.725-0.856-7.547c0-2.787,0.282-5.328,0.856-7.597c0.574-2.285,1.465-4.238,2.65-5.877
	c1.197-1.623,2.725-2.892,4.604-3.787c1.869-0.892,4.105-1.343,6.706-1.343c2.602,0,4.861,0.452,6.767,1.343
	c1.918,0.895,3.495,2.164,4.729,3.787c1.243,1.639,2.16,3.592,2.771,5.877C386.411,36.581,386.717,39.122,386.717,41.909z
	 M380.634,42.127c0-1.903-0.123-3.811-0.354-5.702c-0.243-1.907-0.696-3.604-1.368-5.106c-0.66-1.502-1.588-2.725-2.773-3.667
	c-1.183-0.938-2.71-1.417-4.604-1.417c-1.234,0-2.319,0.222-3.236,0.65c-0.917,0.425-1.698,1.012-2.344,1.771
	c-0.648,0.744-1.173,1.634-1.576,2.662c-0.403,1.027-0.734,2.125-0.966,3.312c-0.243,1.183-0.403,2.401-0.488,3.686
	c-0.085,1.269-0.122,2.542-0.122,3.811c0,1.783,0.099,3.569,0.305,5.328c0.208,1.771,0.623,3.343,1.259,4.752
	c0.623,1.389,1.514,2.514,2.662,3.382c1.148,0.853,2.65,1.281,4.507,1.281c1.894,0,3.421-0.428,4.604-1.281
	c1.186-0.868,2.114-1.993,2.773-3.382c0.671-1.409,1.125-2.982,1.368-4.752C380.511,45.696,380.634,43.91,380.634,42.127z
	 M352.101,49.456c0,1.37-0.245,2.662-0.745,3.911c-0.501,1.234-1.283,2.332-2.334,3.286c-1.049,0.949-2.394,1.719-4.042,2.296
	c-1.636,0.572-3.615,0.853-5.899,0.853c-2.405,0-4.385-0.156-5.924-0.487c-1.539-0.319-2.722-0.646-3.553-0.977V52.83
	c0.194,0.12,0.585,0.35,1.196,0.692s1.355,0.708,2.259,1.114c0.892,0.389,1.88,0.731,2.968,1.023
	c1.088,0.308,2.198,0.456,3.347,0.456c1,0,1.942-0.113,2.833-0.319c0.902-0.218,1.673-0.561,2.333-1.028
	c0.646-0.463,1.173-1.051,1.576-1.744c0.392-0.708,0.586-1.564,0.586-2.568c0-0.875-0.195-1.646-0.586-2.281
	c-0.403-0.649-0.93-1.234-1.613-1.771c-0.683-0.538-1.477-1.062-2.379-1.576c-0.907-0.514-1.87-1.075-2.896-1.662
	c-1.1-0.646-2.213-1.269-3.324-1.868c-1.123-0.588-2.149-1.273-3.065-2.04c-0.917-0.759-1.662-1.65-2.236-2.678
	c-0.574-1.023-0.854-2.281-0.854-3.76c0-3.028,1.001-5.375,2.993-7.021c1.99-1.662,4.97-2.495,8.953-2.495
	c0.929,0,1.807,0.05,2.649,0.148c0.831,0.097,1.589,0.206,2.285,0.354c0.697,0.148,1.308,0.28,1.856,0.417
	c0.551,0.121,1.002,0.229,1.368,0.304v5.215c-0.292-0.16-0.721-0.405-1.308-0.708c-0.586-0.315-1.27-0.623-2.038-0.926
	c-0.771-0.319-1.639-0.588-2.579-0.806c-0.94-0.233-1.917-0.342-2.944-0.342c-0.794,0-1.551,0.082-2.271,0.253
	c-0.733,0.16-1.368,0.417-1.917,0.759c-0.551,0.354-0.991,0.782-1.319,1.308c-0.331,0.525-0.5,1.147-0.5,1.868
	c0,1.051,0.291,1.93,0.877,2.639c0.586,0.721,1.382,1.405,2.394,2.04c1.015,0.646,2.188,1.295,3.543,1.953
	c1.343,0.662,2.773,1.456,4.299,2.382c0.843,0.501,1.625,1.039,2.356,1.611c0.746,0.576,1.381,1.223,1.919,1.942
	c0.537,0.736,0.965,1.565,1.271,2.507C351.943,47.17,352.101,48.249,352.101,49.456z M326.305,49.456
	c0,1.37-0.245,2.662-0.745,3.911c-0.5,1.234-1.282,2.332-2.332,3.286c-1.05,0.949-2.396,1.719-4.044,2.296
	c-1.637,0.572-3.616,0.853-5.9,0.853c-2.405,0-4.384-0.156-5.924-0.487c-1.54-0.319-2.723-0.646-3.553-0.977V52.83
	c0.196,0.12,0.585,0.35,1.197,0.692c0.61,0.343,1.356,0.708,2.259,1.114c0.893,0.389,1.882,0.731,2.967,1.023
	c1.088,0.308,2.199,0.456,3.347,0.456c1.002,0,1.942-0.113,2.833-0.319c0.905-0.218,1.674-0.561,2.333-1.028
	c0.648-0.463,1.172-1.051,1.577-1.744c0.391-0.708,0.585-1.564,0.585-2.568c0-0.875-0.194-1.646-0.585-2.281
	c-0.405-0.649-0.928-1.234-1.613-1.771c-0.686-0.538-1.478-1.062-2.38-1.576c-0.905-0.514-1.87-1.075-2.896-1.662
	c-1.099-0.646-2.21-1.269-3.324-1.868c-1.123-0.588-2.148-1.273-3.065-2.04c-0.915-0.759-1.662-1.65-2.236-2.678
	c-0.572-1.023-0.854-2.281-0.854-3.76c0-3.028,1.002-5.375,2.993-7.021c1.99-1.662,4.97-2.495,8.952-2.495
	c0.93,0,1.808,0.05,2.651,0.148c0.831,0.097,1.589,0.206,2.284,0.354c0.697,0.148,1.308,0.28,1.856,0.417
	c0.551,0.121,1.002,0.229,1.369,0.304v5.215c-0.292-0.16-0.72-0.405-1.307-0.708c-0.587-0.315-1.271-0.623-2.039-0.926
	c-0.771-0.319-1.637-0.588-2.579-0.806c-0.94-0.233-1.917-0.342-2.942-0.342c-0.795,0-1.553,0.082-2.273,0.253
	c-0.733,0.16-1.368,0.417-1.917,0.759c-0.551,0.354-0.991,0.782-1.319,1.308c-0.331,0.525-0.5,1.147-0.5,1.868
	c0,1.051,0.292,1.93,0.878,2.639c0.587,0.721,1.381,1.405,2.396,2.04c1.014,0.646,2.185,1.295,3.542,1.953
	c1.343,0.662,2.773,1.456,4.299,2.382c0.842,0.501,1.625,1.039,2.359,1.611c0.743,0.576,1.38,1.223,1.917,1.942
	c0.537,0.736,0.965,1.565,1.271,2.507C326.145,47.17,326.305,48.249,326.305,49.456z M278.23,37.375c0,1.285,0.085,2.65,0.255,4.083
	c0.159,1.428,0.441,2.845,0.833,4.238c0.403,1.39,0.926,2.725,1.574,4.005c0.66,1.273,1.491,2.394,2.493,3.371
	c1,0.977,2.185,1.759,3.542,2.335c1.354,0.572,2.931,0.852,4.727,0.852c0.781,0,1.465-0.023,2.04-0.086
	c0.574-0.058,1.087-0.144,1.551-0.229c0.464-0.102,0.917-0.21,1.356-0.331c0.451-0.12,0.917-0.233,1.417-0.354v3.152
	c-0.709,0.183-1.379,0.377-2.002,0.548c-0.623,0.183-1.259,0.332-1.919,0.452c-0.646,0.125-1.354,0.206-2.113,0.28
	c-0.743,0.074-1.625,0.109-2.625,0.109c-2.602,0-4.96-0.401-7.061-1.218c-2.113-0.806-3.92-2.017-5.423-3.631
	c-1.502-1.612-2.674-3.612-3.493-6.033c-0.818-2.404-1.234-5.204-1.234-8.402c0-2.503,0.257-4.799,0.782-6.901
	c0.526-2.102,1.355-3.919,2.48-5.449c1.111-1.525,2.576-2.708,4.361-3.577c1.783-0.856,3.958-1.285,6.509-1.285
	c2.077,0,3.825,0.28,5.241,0.845c1.429,0.561,2.59,1.281,3.505,2.16c0.928,0.891,1.636,1.868,2.136,2.958
	c0.502,1.086,0.868,2.149,1.087,3.188c0.234,1.039,0.355,2,0.392,2.884c0.037,0.876,0.062,1.561,0.062,2.036H278.23z
	 M293.045,34.152c0-0.747-0.072-1.576-0.232-2.491c-0.158-0.918-0.477-1.782-0.977-2.592c-0.5-0.817-1.234-1.486-2.173-2.027
	c-0.94-0.534-2.188-0.806-3.739-0.806c-1.051,0-1.954,0.148-2.736,0.455c-0.769,0.292-1.44,0.681-1.991,1.16
	c-0.537,0.475-1.002,1.012-1.368,1.611c-0.377,0.599-0.671,1.183-0.88,1.771c-0.22,0.587-0.366,1.137-0.451,1.662
	c-0.086,0.525-0.123,0.954-0.123,1.257H293.045z M266.883,29.668c-1.917,0-3.493,0.366-4.764,1.113
	c-1.271,0.731-2.271,1.708-3.028,2.919c-0.746,1.195-1.284,2.564-1.588,4.09c-0.305,1.525-0.464,3.091-0.464,4.69v16.502h-5.399
	V24.099h5.399v8.293h0.147c0.426-0.953,0.989-1.966,1.672-3.04c0.697-1.078,1.516-2.051,2.456-2.958
	c0.94-0.891,2.016-1.623,3.199-2.21c1.197-0.583,2.493-0.88,3.909-0.88v6.364H266.883z M239.89,59.205
	c0,5.312-1.345,9.22-4.019,11.711c-2.688,2.495-6.695,3.736-12.007,3.736c-1.88,0-3.579-0.121-5.093-0.377
	c-1.516-0.245-2.847-0.561-3.995-0.938v-6.021c0.745,0.439,1.502,0.852,2.273,1.257c0.783,0.401,1.575,0.755,2.394,1.051
	c0.832,0.304,1.699,0.549,2.602,0.743c0.903,0.184,1.868,0.28,2.894,0.28c1.6,0,2.944-0.229,4.019-0.697
	c1.087-0.463,1.991-1.062,2.712-1.794c0.709-0.72,1.258-1.542,1.637-2.444c0.392-0.915,0.672-1.794,0.843-2.674
	c0.183-0.867,0.28-1.673,0.306-2.428c0.023-0.748,0.037-1.346,0.037-1.774v-6.901h-0.148c-0.146,0.575-0.426,1.261-0.843,2.078
	c-0.416,0.806-1.002,1.576-1.745,2.308c-0.757,0.72-1.7,1.354-2.833,1.88c-1.125,0.525-2.456,0.782-3.983,0.782
	c-2.223,0-4.116-0.487-5.704-1.464c-1.587-0.977-2.894-2.312-3.896-3.969c-1.014-1.674-1.771-3.604-2.259-5.803
	c-0.491-2.199-0.734-4.507-0.734-6.939c0-2.44,0.257-4.713,0.757-6.838c0.502-2.125,1.259-3.981,2.285-5.569
	c1.025-1.577,2.31-2.822,3.861-3.736c1.551-0.907,3.37-1.359,5.47-1.359c1.674,0,3.067,0.28,4.19,0.845
	c1.123,0.561,2.04,1.218,2.773,2c0.72,0.77,1.293,1.576,1.697,2.42c0.404,0.83,0.722,1.538,0.965,2.103h0.148v-6.574h5.398V59.205z
	 M234.492,41.091c0-1.552-0.16-3.164-0.465-4.849c-0.306-1.686-0.806-3.227-1.491-4.62c-0.671-1.389-1.551-2.538-2.636-3.456
	c-1.088-0.903-2.396-1.354-3.922-1.354c-1.454,0-2.662,0.463-3.627,1.382c-0.966,0.915-1.748,2.074-2.333,3.479
	c-0.586,1.417-0.991,2.958-1.234,4.616c-0.233,1.674-0.354,3.273-0.354,4.802c0,1.502,0.121,3.102,0.379,4.775
	c0.243,1.686,0.658,3.234,1.246,4.678c0.585,1.429,1.367,2.612,2.344,3.542c0.978,0.926,2.197,1.39,3.652,1.39
	c1.478,0,2.747-0.436,3.822-1.319c1.075-0.891,1.954-2.024,2.625-3.417c0.686-1.406,1.186-2.942,1.503-4.643
	C234.332,44.411,234.492,42.738,234.492,41.091z M197.786,58.983V36.397c0-0.926-0.023-1.903-0.074-2.918
	c-0.049-1.012-0.218-1.942-0.535-2.783c-0.308-0.856-0.794-1.552-1.456-2.102c-0.646-0.549-1.588-0.817-2.809-0.817
	c-1.21,0-2.321,0.245-3.321,0.732c-1.002,0.49-1.894,1.148-2.688,1.993c-0.782,0.829-1.465,1.794-2.041,2.88
	c-0.572,1.074-1.049,2.222-1.429,3.433c-0.377,1.199-0.671,2.433-0.866,3.667c-0.183,1.246-0.282,2.417-0.282,3.542v14.961h-5.398
	V24.099h5.252v8.585h0.146c0.525-1.097,1.16-2.207,1.894-3.332c0.745-1.125,1.613-2.125,2.615-3.02
	c1.001-0.903,2.161-1.623,3.494-2.184c1.317-0.564,2.845-0.845,4.556-0.845c1.525,0,2.819,0.296,3.87,0.88
	c1.051,0.588,1.905,1.331,2.579,2.234c0.66,0.907,1.146,1.895,1.44,2.97c0.306,1.074,0.454,2.102,0.454,3.079v26.517H197.786z
	 M167.654,41.909c0,2.822-0.306,5.336-0.917,7.547c-0.611,2.226-1.528,4.095-2.771,5.62c-1.234,1.526-2.81,2.701-4.729,3.507
	c-1.905,0.817-4.165,1.218-6.766,1.218c-2.603,0-4.836-0.401-6.706-1.218c-1.88-0.806-3.408-1.981-4.604-3.507
	c-1.185-1.525-2.077-3.394-2.65-5.62c-0.575-2.211-0.855-4.725-0.855-7.547c0-2.787,0.28-5.328,0.855-7.597
	c0.573-2.285,1.465-4.238,2.65-5.877c1.197-1.623,2.724-2.892,4.604-3.787c1.87-0.892,4.104-1.343,6.706-1.343
	c2.602,0,4.861,0.452,6.766,1.343c1.919,0.895,3.495,2.164,4.729,3.787c1.243,1.639,2.16,3.592,2.771,5.877
	C167.348,36.581,167.654,39.122,167.654,41.909z M161.57,42.127c0-1.903-0.122-3.811-0.354-5.702
	c-0.243-1.907-0.695-3.604-1.368-5.106c-0.66-1.502-1.588-2.725-2.771-3.667c-1.186-0.938-2.712-1.417-4.606-1.417
	c-1.234,0-2.32,0.222-3.236,0.65c-0.917,0.425-1.697,1.012-2.345,1.771c-0.647,0.744-1.174,1.634-1.576,2.662
	c-0.403,1.027-0.734,2.125-0.965,3.312c-0.244,1.183-0.403,2.401-0.489,3.686c-0.085,1.269-0.123,2.542-0.123,3.811
	c0,1.783,0.1,3.569,0.306,5.328c0.208,1.771,0.623,3.343,1.259,4.752c0.622,1.389,1.514,2.514,2.662,3.382
	c1.148,0.853,2.651,1.281,4.507,1.281c1.894,0,3.42-0.428,4.606-1.281c1.183-0.868,2.111-1.993,2.771-3.382
	c0.673-1.409,1.125-2.982,1.368-4.752C161.448,45.696,161.57,43.91,161.57,42.127z M126.126,22.122c0-1.148-0.137-2.347-0.417-3.616
	c-0.269-1.257-0.757-2.42-1.442-3.468c-0.694-1.051-1.634-1.918-2.808-2.604c-1.186-0.67-2.676-1.012-4.496-1.012
	c-1.734,0-3.236,0.326-4.482,1c-1.259,0.674-2.321,1.553-3.189,2.65c-0.866,1.098-1.574,2.359-2.125,3.788
	c-0.549,1.428-0.978,2.907-1.269,4.41c-0.293,1.502-0.502,2.993-0.611,4.484c-0.111,1.49-0.16,2.856-0.16,4.102
	c0,2.004,0.098,3.97,0.306,5.912c0.196,1.954,0.54,3.799,1.002,5.546c0.463,1.759,1.074,3.37,1.82,4.85
	c0.756,1.475,1.661,2.759,2.736,3.845c1.074,1.089,2.32,1.942,3.738,2.541c1.428,0.612,3.051,0.915,4.884,0.915
	c1.577,0,2.945-0.145,4.117-0.452c1.173-0.292,2.199-0.669,3.09-1.121c0.905-0.452,1.699-0.954,2.419-1.518
	c0.72-0.561,1.417-1.085,2.113-1.588v5.694c-0.623,0.354-1.345,0.72-2.187,1.098c-0.829,0.394-1.771,0.748-2.808,1.074
	c-1.039,0.343-2.174,0.611-3.408,0.833c-1.247,0.206-2.566,0.315-3.983,0.315c-2.588,0-4.896-0.354-6.912-1.074
	c-2.016-0.708-3.787-1.697-5.301-2.954c-1.514-1.246-2.785-2.736-3.822-4.449c-1.039-1.72-1.882-3.576-2.53-5.581
	c-0.634-2-1.1-4.113-1.392-6.312c-0.282-2.211-0.428-4.434-0.428-6.683c0-1.588,0.109-3.32,0.317-5.18
	c0.22-1.869,0.598-3.725,1.136-5.582c0.537-1.868,1.258-3.663,2.174-5.41c0.914-1.736,2.077-3.273,3.47-4.592
	c1.403-1.331,3.064-2.382,4.996-3.188c1.928-0.794,4.189-1.198,6.766-1.198c2.565,0,4.849,0.393,6.826,1.187
	c1.979,0.782,3.641,1.844,4.996,3.176c1.345,1.343,2.358,2.879,3.043,4.639c0.671,1.748,1.014,3.593,1.014,5.523H126.126z
	 M74.056,28.349c0,3.129-0.697,5.57-2.077,7.329c-1.381,1.748-3.518,2.627-6.4,2.627c-1.454,0-2.7-0.233-3.75-0.685
	c-1.051-0.451-1.918-1.109-2.602-1.965c-0.671-0.856-1.185-1.907-1.514-3.125c-0.331-1.234-0.502-2.627-0.502-4.18
	c0-1.561,0.171-3.005,0.502-4.285c0.329-1.296,0.843-2.394,1.514-3.312c0.683-0.914,1.551-1.623,2.602-2.125
	c1.051-0.498,2.297-0.755,3.75-0.755c1.428,0,2.686,0.257,3.762,0.755c1.062,0.501,1.955,1.21,2.638,2.125
	c0.695,0.919,1.21,2.017,1.562,3.312C73.885,25.344,74.056,26.788,74.056,28.349z M70.403,28.423c0-1.023-0.062-2.051-0.196-3.079
	c-0.132-1.023-0.366-1.941-0.718-2.747c-0.343-0.817-0.833-1.475-1.456-1.989c-0.634-0.514-1.454-0.771-2.454-0.771
	c-1.002,0-1.808,0.257-2.431,0.771c-0.611,0.514-1.087,1.171-1.43,1.989c-0.328,0.806-0.548,1.724-0.658,2.747
	c-0.11,1.028-0.16,2.056-0.16,3.079c0,0.942,0.049,1.868,0.16,2.81c0.109,0.954,0.33,1.794,0.658,2.542
	c0.343,0.755,0.819,1.366,1.43,1.845c0.623,0.475,1.429,0.721,2.431,0.721c1,0,1.82-0.246,2.454-0.721
	c0.623-0.479,1.113-1.09,1.456-1.845c0.352-0.747,0.585-1.588,0.718-2.542C70.341,30.291,70.403,29.365,70.403,28.423z
	 M33.76,58.983h-6.681l17.32-42.151H23.5v-4.3h27.336v4.3L33.76,58.983z"/>
<path fill="#FFFFFF" d="M369.882,100.231V93.65h6.144v6.581H369.882z M375.671,146.402c0,1.549-0.085,2.856-0.243,3.907
	c-0.171,1.062-0.417,1.982-0.722,2.748c-0.306,0.76-0.671,1.406-1.075,1.942c-0.404,0.537-0.842,1.051-1.319,1.526
	c-0.854,0.833-1.845,1.479-2.968,1.93c-1.125,0.452-2.199,0.783-3.239,1.004c-1.037,0.206-1.965,0.343-2.759,0.377
	c-0.793,0.04-1.307,0.047-1.515,0.047h-1.184v-4.335c0.206,0.074,0.415,0.136,0.585,0.183c0.183,0.051,0.366,0.101,0.574,0.148
	c0.207,0.051,0.429,0.085,0.66,0.109c0.246,0.027,0.538,0.038,0.903,0.038c1.333,0,2.445-0.194,3.324-0.576
	c0.88-0.377,1.588-0.903,2.113-1.576c0.525-0.658,0.892-1.452,1.111-2.354c0.206-0.907,0.317-1.869,0.317-2.896v-39.294h5.435
	V146.402z M340.189,122.606c0,1.285,0.086,2.65,0.257,4.083c0.158,1.429,0.44,2.845,0.831,4.239
	c0.401,1.389,0.927,2.724,1.575,4.005c0.66,1.269,1.491,2.394,2.493,3.37c1,0.977,2.186,1.759,3.542,2.332
	c1.355,0.576,2.931,0.856,4.725,0.856c0.783,0,1.467-0.023,2.042-0.085c0.575-0.058,1.088-0.144,1.551-0.229
	c0.465-0.102,0.917-0.21,1.356-0.331c0.451-0.121,0.914-0.233,1.417-0.354v3.152c-0.709,0.183-1.38,0.377-2.004,0.549
	c-0.623,0.183-1.258,0.327-1.917,0.452c-0.646,0.121-1.354,0.206-2.113,0.28c-0.746,0.074-1.625,0.109-2.625,0.109
	c-2.602,0-4.96-0.401-7.06-1.218c-2.113-0.809-3.921-2.016-5.424-3.631c-1.502-1.611-2.673-3.612-3.493-6.033
	c-0.817-2.405-1.234-5.203-1.234-8.402c0-2.502,0.257-4.799,0.782-6.901c0.526-2.102,1.355-3.918,2.479-5.449
	c1.112-1.525,2.577-2.708,4.362-3.576c1.782-0.856,3.958-1.285,6.509-1.285c2.077,0,3.822,0.281,5.239,0.845
	c1.431,0.56,2.592,1.28,3.507,2.159c0.928,0.892,1.637,1.869,2.137,2.958c0.501,1.086,0.867,2.148,1.087,3.188
	c0.232,1.04,0.354,2.001,0.392,2.884c0.037,0.875,0.062,1.561,0.062,2.036H340.189z M355.005,119.383
	c0-0.747-0.072-1.576-0.232-2.49c-0.158-0.919-0.477-1.782-0.977-2.593c-0.501-0.817-1.234-1.487-2.174-2.027
	c-0.94-0.537-2.187-0.806-3.738-0.806c-1.051,0-1.954,0.148-2.736,0.452c-0.769,0.295-1.441,0.685-1.991,1.164
	c-0.537,0.475-1.002,1.012-1.368,1.611c-0.377,0.6-0.671,1.183-0.879,1.771c-0.22,0.588-0.367,1.137-0.452,1.663
	c-0.085,0.525-0.123,0.953-0.123,1.256H355.005z M319.546,144.215v-22.586c0-0.926-0.023-1.903-0.074-2.919
	c-0.049-1.012-0.219-1.941-0.535-2.783c-0.308-0.856-0.796-1.553-1.454-2.101c-0.649-0.549-1.59-0.818-2.81-0.818
	c-1.209,0-2.322,0.241-3.322,0.732c-1.003,0.491-1.894,1.148-2.688,1.993c-0.782,0.829-1.465,1.793-2.042,2.879
	c-0.574,1.075-1.049,2.222-1.428,3.433c-0.377,1.2-0.671,2.433-0.866,3.663c-0.183,1.25-0.282,2.421-0.282,3.546v14.961h-5.398
	v-34.885h5.252v8.585h0.146c0.525-1.097,1.16-2.21,1.894-3.331c0.746-1.125,1.613-2.125,2.614-3.021
	c1.002-0.903,2.162-1.623,3.493-2.183c1.319-0.564,2.847-0.845,4.558-0.845c1.526,0,2.819,0.296,3.87,0.879
	c1.051,0.588,1.906,1.332,2.577,2.234c0.662,0.908,1.147,1.896,1.441,2.97c0.306,1.074,0.452,2.102,0.452,3.079v26.517H319.546z
	 M281.585,144.215v-4.896l-0.148-0.012c-0.254,0.425-0.66,0.962-1.197,1.612c-0.537,0.646-1.222,1.269-2.04,1.88
	c-0.83,0.611-1.807,1.136-2.93,1.576c-1.137,0.44-2.433,0.658-3.885,0.658c-1.417,0-2.701-0.241-3.848-0.72
	c-1.162-0.475-2.164-1.109-2.993-1.93c-0.831-0.806-1.479-1.748-1.931-2.807c-0.451-1.051-0.683-2.176-0.683-3.335
	c0-1.724,0.329-3.176,1-4.375c0.673-1.183,1.551-2.184,2.65-3.005c1.1-0.806,2.347-1.44,3.738-1.903
	c1.405-0.467,2.822-0.833,4.275-1.102c1.465-0.257,2.882-0.44,4.262-0.538c1.392-0.085,2.627-0.171,3.727-0.245v-4.616
	c0-0.927-0.051-1.919-0.159-2.97c-0.109-1.047-0.366-2.024-0.794-2.919c-0.415-0.903-1.039-1.635-1.856-2.223
	c-0.819-0.583-1.967-0.879-3.419-0.879c-1.405,0-2.504,0.245-3.287,0.724c-0.794,0.475-1.391,1.058-1.793,1.771
	c-0.405,0.709-0.674,1.452-0.808,2.258c-0.123,0.793-0.22,1.526-0.269,2.199h-6.292c0.1-1.075,0.331-2.188,0.699-3.348
	c0.366-1.16,1.012-2.222,1.942-3.187c0.94-0.966,2.197-1.771,3.796-2.394c1.602-0.634,3.678-0.954,6.229-0.954
	c1.71,0,3.19,0.171,4.423,0.514c1.22,0.354,2.259,0.817,3.103,1.405c0.854,0.587,1.527,1.257,2.039,2.039
	c0.514,0.771,0.905,1.588,1.186,2.444c0.268,0.864,0.451,1.748,0.537,2.639c0.085,0.891,0.122,1.759,0.122,2.588v24.049H281.585z
	 M281.585,128.009c-0.305,0.023-0.868,0.046-1.685,0.085c-0.808,0.035-1.723,0.12-2.736,0.257c-1.016,0.132-2.076,0.338-3.188,0.646
	c-1.113,0.292-2.125,0.72-3.03,1.257c-0.905,0.549-1.662,1.245-2.261,2.102c-0.598,0.841-0.891,1.88-0.891,3.125
	c0,1.884,0.525,3.335,1.565,4.352c1.037,1.012,2.344,1.514,3.92,1.514c1.1,0,2.148-0.246,3.151-0.736
	c1.001-0.486,1.881-1.16,2.65-2.004c0.757-0.841,1.369-1.841,1.819-3c0.452-1.16,0.685-2.421,0.685-3.775V128.009z M247.263,144.215
	V93.65h5.435v50.565H247.263z M239.86,107.497c0,2.051-0.257,3.826-0.782,5.316c-0.525,1.487-1.245,2.76-2.137,3.799
	c-0.891,1.036-1.942,1.868-3.15,2.503c-1.199,0.634-2.482,1.125-3.85,1.49c-1.354,0.354-2.759,0.6-4.213,0.708
	c-1.465,0.121-2.883,0.183-4.262,0.183h-4.691v22.718h-6.082V93.65h10.773c1.379,0,2.797,0.058,4.262,0.194
	c1.454,0.132,2.858,0.378,4.213,0.732c1.368,0.366,2.65,0.867,3.85,1.502c1.208,0.646,2.259,1.479,3.15,2.507
	c0.892,1.023,1.612,2.281,2.137,3.748C239.604,103.796,239.86,105.521,239.86,107.497z M233.352,107.279
	c0-2.051-0.368-3.701-1.088-4.97c-0.732-1.26-1.673-2.238-2.808-2.918c-1.15-0.673-2.433-1.137-3.861-1.358
	c-1.417-0.229-2.821-0.343-4.202-0.343h-4.617v19.62h4.617c0.929,0,1.869-0.039,2.834-0.125c0.954-0.085,1.868-0.245,2.748-0.49
	c0.891-0.23,1.722-0.584,2.491-1.036c0.783-0.451,1.456-1.051,2.028-1.782c0.564-0.748,1.028-1.65,1.356-2.725
	C233.18,110.074,233.352,108.793,233.352,107.279z M182.063,127.141c0,2.821-0.307,5.336-0.917,7.546
	c-0.611,2.227-1.527,4.095-2.773,5.62c-1.234,1.526-2.808,2.698-4.726,3.507c-1.906,0.817-4.165,1.218-6.767,1.218
	c-2.602,0-4.837-0.401-6.706-1.218c-1.882-0.809-3.408-1.981-4.605-3.507c-1.185-1.525-2.076-3.394-2.65-5.62
	c-0.574-2.21-0.857-4.725-0.857-7.546c0-2.787,0.283-5.329,0.857-7.598c0.574-2.284,1.465-4.238,2.65-5.876
	c1.197-1.623,2.723-2.892,4.605-3.787c1.868-0.892,4.104-1.343,6.706-1.343c2.602,0,4.861,0.451,6.767,1.343
	c1.918,0.895,3.492,2.164,4.726,3.787c1.246,1.638,2.162,3.592,2.773,5.876C181.757,121.812,182.063,124.354,182.063,127.141z
	 M175.98,127.358c0-1.903-0.123-3.81-0.354-5.702c-0.243-1.907-0.697-3.604-1.369-5.106c-0.66-1.502-1.587-2.724-2.773-3.667
	c-1.185-0.938-2.71-1.417-4.604-1.417c-1.233,0-2.319,0.222-3.236,0.65c-0.917,0.424-1.699,1.012-2.347,1.771
	c-0.646,0.743-1.171,1.635-1.574,2.662c-0.404,1.027-0.733,2.125-0.965,3.309c-0.243,1.187-0.403,2.405-0.489,3.689
	c-0.085,1.269-0.122,2.541-0.122,3.81c0,1.783,0.097,3.57,0.306,5.329c0.208,1.767,0.623,3.343,1.257,4.752
	c0.625,1.389,1.517,2.514,2.664,3.382c1.149,0.852,2.65,1.28,4.507,1.28c1.894,0,3.42-0.428,4.604-1.28
	c1.186-0.868,2.113-1.993,2.773-3.382c0.672-1.409,1.125-2.985,1.369-4.752C175.858,130.928,175.98,129.141,175.98,127.358z
	 M118.476,144.215v-4.896l-0.146-0.012c-0.257,0.425-0.66,0.962-1.197,1.612c-0.537,0.646-1.222,1.269-2.04,1.88
	c-0.833,0.611-1.808,1.136-2.933,1.576c-1.136,0.44-2.43,0.658-3.884,0.658c-1.417,0-2.699-0.241-3.848-0.72
	c-1.16-0.475-2.162-1.109-2.993-1.93c-0.829-0.806-1.477-1.748-1.929-2.807c-0.453-1.051-0.685-2.176-0.685-3.335
	c0-1.724,0.33-3.176,1.003-4.375c0.671-1.183,1.55-2.184,2.65-3.005c1.098-0.806,2.345-1.44,3.738-1.903
	c1.403-0.467,2.82-0.833,4.273-1.102c1.465-0.257,2.882-0.44,4.263-0.538c1.392-0.085,2.625-0.171,3.725-0.245v-4.616
	c0-0.927-0.049-1.919-0.158-2.97c-0.111-1.047-0.368-2.024-0.796-2.919c-0.415-0.903-1.037-1.635-1.856-2.223
	c-0.817-0.583-1.965-0.879-3.419-0.879c-1.406,0-2.505,0.245-3.286,0.724c-0.795,0.475-1.393,1.058-1.796,1.771
	c-0.403,0.709-0.671,1.452-0.806,2.258c-0.122,0.793-0.22,1.526-0.27,2.199H99.8c0.097-1.075,0.331-2.188,0.697-3.348
	c0.366-1.16,1.014-2.222,1.942-3.187c0.94-0.966,2.199-1.771,3.799-2.394c1.6-0.634,3.676-0.954,6.229-0.954
	c1.71,0,3.188,0.171,4.421,0.514c1.222,0.354,2.259,0.817,3.102,1.405c0.856,0.587,1.528,1.257,2.042,2.039
	c0.512,0.771,0.903,1.588,1.183,2.444c0.269,0.864,0.452,1.748,0.538,2.639c0.088,0.891,0.122,1.759,0.122,2.588v24.049H118.476z
	 M118.476,128.009c-0.306,0.023-0.868,0.046-1.686,0.085c-0.805,0.035-1.722,0.12-2.736,0.257c-1.013,0.132-2.076,0.338-3.187,0.646
	c-1.112,0.292-2.125,0.72-3.03,1.257c-0.903,0.549-1.661,1.245-2.259,2.102c-0.598,0.841-0.892,1.88-0.892,3.125
	c0,1.884,0.526,3.335,1.563,4.352c1.04,1.012,2.347,1.514,3.921,1.514c1.1,0,2.148-0.246,3.15-0.736
	c1.003-0.486,1.882-1.16,2.651-2.004c0.757-0.841,1.368-1.841,1.819-3c0.454-1.16,0.685-2.421,0.685-3.775V128.009z M93.779,114.9
	c-1.917,0-3.493,0.366-4.764,1.113c-1.271,0.731-2.271,1.709-3.028,2.919c-0.746,1.195-1.285,2.564-1.588,4.09
	c-0.305,1.525-0.465,3.091-0.465,4.69v16.502h-5.4v-34.885h5.4v8.294h0.146c0.428-0.954,0.991-1.966,1.673-3.04
	c0.697-1.079,1.516-2.051,2.456-2.958c0.94-0.892,2.015-1.624,3.199-2.211c1.197-0.583,2.491-0.879,3.91-0.879v6.363H93.779z
	 M61.473,144.215v-4.896l-0.147-0.012c-0.255,0.425-0.66,0.962-1.197,1.612c-0.538,0.646-1.223,1.269-2.04,1.88
	c-0.832,0.611-1.808,1.136-2.931,1.576c-1.138,0.44-2.433,0.658-3.884,0.658c-1.417,0-2.701-0.241-3.849-0.72
	c-1.16-0.475-2.162-1.109-2.991-1.93c-0.831-0.806-1.479-1.748-1.931-2.807c-0.451-1.051-0.683-2.176-0.683-3.335
	c0-1.724,0.329-3.176,1-4.375c0.671-1.183,1.551-2.184,2.65-3.005c1.1-0.806,2.345-1.44,3.738-1.903
	c1.405-0.467,2.822-0.833,4.275-1.102c1.466-0.257,2.882-0.44,4.262-0.538c1.392-0.085,2.625-0.171,3.727-0.245v-4.616
	c0-0.927-0.051-1.919-0.16-2.97c-0.109-1.047-0.366-2.024-0.794-2.919c-0.415-0.903-1.039-1.635-1.856-2.223
	c-0.819-0.583-1.967-0.879-3.419-0.879c-1.407,0-2.505,0.245-3.287,0.724c-0.794,0.475-1.392,1.058-1.796,1.771
	c-0.403,0.709-0.671,1.452-0.806,2.258c-0.123,0.793-0.22,1.526-0.269,2.199h-6.292c0.1-1.075,0.331-2.188,0.697-3.348
	c0.368-1.16,1.014-2.222,1.942-3.187c0.94-0.966,2.199-1.771,3.799-2.394c1.602-0.634,3.678-0.954,6.229-0.954
	c1.711,0,3.189,0.171,4.421,0.514c1.223,0.354,2.259,0.817,3.104,1.405c0.855,0.587,1.528,1.257,2.04,2.039
	c0.514,0.771,0.903,1.588,1.184,2.444c0.271,0.864,0.453,1.748,0.539,2.639c0.086,0.891,0.123,1.759,0.123,2.588v24.049H61.473z
	 M61.473,128.009c-0.306,0.023-0.868,0.046-1.685,0.085c-0.808,0.035-1.725,0.12-2.736,0.257c-1.015,0.132-2.076,0.338-3.189,0.646
	c-1.111,0.292-2.125,0.72-3.027,1.257c-0.906,0.549-1.663,1.245-2.262,2.102c-0.598,0.841-0.892,1.88-0.892,3.125
	c0,1.884,0.525,3.335,1.565,4.352c1.037,1.012,2.345,1.514,3.921,1.514c1.097,0,2.148-0.246,3.15-0.736
	c1.002-0.486,1.88-1.16,2.651-2.004c0.757-0.841,1.368-1.841,1.82-3c0.451-1.16,0.685-2.421,0.685-3.775V128.009z M35.383,127.215
	c0,2.428-0.234,4.725-0.697,6.889c-0.463,2.16-1.21,4.051-2.222,5.666c-1.017,1.624-2.322,2.908-3.922,3.846
	c-1.587,0.942-3.518,1.417-5.752,1.417c-1.625,0-2.98-0.257-4.081-0.782c-1.098-0.521-2.002-1.171-2.723-1.915
	c-0.722-0.759-1.259-1.525-1.649-2.335c-0.378-0.794-0.672-1.463-0.892-2.012h-0.146v21.896h-5.4v-50.554h5.4v6.756h0.146
	c0.22-0.65,0.574-1.405,1.075-2.273c0.502-0.867,1.16-1.697,1.967-2.467c0.806-0.771,1.771-1.44,2.882-1.989
	c1.11-0.553,2.37-0.821,3.772-0.821c2.077,0,3.885,0.463,5.424,1.381c1.539,0.915,2.81,2.199,3.824,3.846
	c1.014,1.638,1.771,3.615,2.259,5.9C35.137,121.96,35.383,124.479,35.383,127.215z M29.3,127.141c0-2.164-0.16-4.176-0.463-6.01
	c-0.317-1.833-0.782-3.433-1.418-4.775c-0.634-1.346-1.417-2.405-2.356-3.164c-0.94-0.771-2.053-1.147-3.311-1.147
	c-1.222,0-2.345,0.416-3.384,1.256c-1.037,0.833-1.942,1.931-2.687,3.285c-0.757,1.358-1.342,2.907-1.757,4.631
	c-0.417,1.731-0.623,3.48-0.623,5.25c0,0.856,0.061,1.821,0.183,2.896c0.111,1.074,0.317,2.172,0.586,3.285
	c0.269,1.125,0.623,2.21,1.051,3.261c0.439,1.05,0.965,1.993,1.6,2.822c0.636,0.845,1.368,1.502,2.199,2.004
	c0.831,0.498,1.809,0.755,2.908,0.755c1.477,0,2.699-0.439,3.664-1.319c0.963-0.891,1.734-2.016,2.283-3.405
	c0.563-1.382,0.966-2.919,1.186-4.632C29.188,130.426,29.3,128.764,29.3,127.141z M834.111,41.909c0,2.822-0.305,5.336-0.916,7.547
	c-0.611,2.226-1.528,4.095-2.772,5.62c-1.232,1.526-2.81,2.701-4.728,3.507c-1.906,0.817-4.165,1.218-6.767,1.218
	c-2.601,0-4.838-0.401-6.706-1.218c-1.88-0.806-3.407-1.981-4.604-3.507c-1.186-1.525-2.076-3.394-2.651-5.62
	c-0.574-2.211-0.855-4.725-0.855-7.547c0-2.787,0.281-5.328,0.855-7.597c0.575-2.285,1.466-4.238,2.651-5.877
	c1.196-1.623,2.724-2.892,4.604-3.787c1.868-0.892,4.105-1.343,6.706-1.343c2.602,0,4.86,0.452,6.767,1.343
	c1.918,0.895,3.495,2.164,4.728,3.787c1.244,1.639,2.161,3.592,2.772,5.877C833.807,36.581,834.111,39.122,834.111,41.909z
	 M828.028,42.127c0-1.903-0.122-3.811-0.354-5.702c-0.243-1.907-0.695-3.604-1.368-5.106c-0.66-1.502-1.588-2.725-2.771-3.667
	c-1.187-0.938-2.713-1.417-4.606-1.417c-1.233,0-2.319,0.222-3.235,0.65c-0.917,0.425-1.699,1.012-2.345,1.771
	c-0.649,0.744-1.174,1.634-1.577,2.662c-0.402,1.027-0.733,2.125-0.966,3.312c-0.243,1.183-0.401,2.401-0.488,3.686
	c-0.085,1.269-0.121,2.542-0.121,3.811c0,1.783,0.099,3.569,0.305,5.328c0.209,1.771,0.622,3.343,1.259,4.752
	c0.623,1.389,1.515,2.514,2.662,3.382c1.148,0.853,2.65,1.281,4.507,1.281c1.894,0,3.42-0.428,4.606-1.281
	c1.184-0.868,2.111-1.993,2.771-3.382c0.673-1.409,1.125-2.982,1.368-4.752C827.906,45.696,828.028,43.91,828.028,42.127z
	 M798.788,29.668c-1.918,0-3.493,0.366-4.763,1.113c-1.272,0.731-2.272,1.708-3.029,2.919c-0.746,1.195-1.285,2.564-1.588,4.09
	c-0.307,1.525-0.465,3.091-0.465,4.69v16.502h-5.398V24.099h5.398v8.293h0.146c0.428-0.953,0.991-1.966,1.674-3.04
	c0.697-1.078,1.516-2.051,2.457-2.958c0.938-0.891,2.015-1.623,3.199-2.21c1.195-0.583,2.491-0.88,3.908-0.88v6.364H798.788z
	 M765.799,15V8.418h6.143V15H765.799z M766.15,58.983V24.099h5.436v34.884H766.15z M736.458,37.375c0,1.285,0.086,2.65,0.258,4.083
	c0.16,1.428,0.439,2.845,0.832,4.238c0.402,1.39,0.927,2.725,1.575,4.005c0.658,1.273,1.488,2.394,2.491,3.371
	c1.002,0.977,2.186,1.759,3.541,2.335c1.357,0.572,2.933,0.852,4.727,0.852c0.783,0,1.468-0.023,2.039-0.086
	c0.575-0.058,1.089-0.144,1.554-0.229c0.464-0.102,0.915-0.21,1.354-0.331c0.454-0.12,0.916-0.233,1.417-0.354v3.152
	c-0.709,0.183-1.381,0.377-2.003,0.548c-0.623,0.183-1.257,0.332-1.917,0.452c-0.647,0.125-1.355,0.206-2.112,0.28
	c-0.746,0.074-1.626,0.109-2.627,0.109c-2.603,0-4.96-0.401-7.059-1.218c-2.113-0.806-3.921-2.017-5.426-3.631
	c-1.503-1.612-2.674-3.612-3.493-6.033c-0.817-2.404-1.231-5.204-1.231-8.402c0-2.503,0.254-4.799,0.78-6.901
	c0.525-2.102,1.355-3.919,2.48-5.449c1.112-1.525,2.577-2.708,4.359-3.577c1.783-0.856,3.959-1.285,6.509-1.285
	c2.08,0,3.824,0.28,5.241,0.845c1.429,0.561,2.59,1.281,3.504,2.16c0.932,0.891,1.64,1.868,2.14,2.958
	c0.501,1.086,0.867,2.149,1.087,3.188c0.232,1.039,0.355,2,0.393,2.884c0.034,0.876,0.06,1.561,0.06,2.036H736.458z M751.275,34.152
	c0-0.747-0.074-1.576-0.234-2.491c-0.155-0.918-0.474-1.782-0.974-2.592c-0.502-0.817-1.234-1.486-2.176-2.027
	c-0.939-0.534-2.185-0.806-3.736-0.806c-1.052,0-1.955,0.148-2.735,0.455c-0.771,0.292-1.442,0.681-1.992,1.16
	c-0.539,0.475-1.002,1.012-1.366,1.611c-0.381,0.599-0.674,1.183-0.88,1.771c-0.22,0.587-0.367,1.137-0.454,1.662
	c-0.084,0.525-0.12,0.954-0.12,1.257H751.275z M715.488,58.983V8.418h5.435v50.565H715.488z M697.535,15V8.418h6.143V15H697.535z
	 M697.887,58.983V24.099h5.438v34.884H697.887z M690.475,49.456c0,1.37-0.246,2.662-0.745,3.911c-0.5,1.234-1.282,2.332-2.333,3.286
	c-1.052,0.949-2.394,1.719-4.044,2.296c-1.635,0.572-3.614,0.853-5.899,0.853c-2.405,0-4.385-0.156-5.924-0.487
	c-1.539-0.319-2.723-0.646-3.553-0.977V52.83c0.195,0.12,0.586,0.35,1.195,0.692c0.612,0.343,1.356,0.708,2.259,1.114
	c0.894,0.389,1.882,0.731,2.97,1.023c1.088,0.308,2.198,0.456,3.347,0.456c1,0,1.942-0.113,2.833-0.319
	c0.903-0.218,1.673-0.561,2.333-1.028c0.646-0.463,1.173-1.051,1.576-1.744c0.39-0.708,0.588-1.564,0.588-2.568
	c0-0.875-0.198-1.646-0.588-2.281c-0.403-0.649-0.93-1.234-1.612-1.771c-0.686-0.538-1.477-1.062-2.383-1.576
	c-0.903-0.514-1.869-1.075-2.895-1.662c-1.1-0.646-2.212-1.269-3.321-1.868c-1.124-0.588-2.149-1.273-3.065-2.04
	c-0.917-0.759-1.663-1.65-2.236-2.678c-0.573-1.023-0.854-2.281-0.854-3.76c0-3.028,1-5.375,2.991-7.021
	c1.991-1.662,4.972-2.495,8.953-2.495c0.93,0,1.81,0.05,2.651,0.148c0.831,0.097,1.588,0.206,2.285,0.354
	c0.694,0.148,1.307,0.28,1.855,0.417c0.549,0.121,1.003,0.229,1.369,0.304v5.215c-0.294-0.16-0.723-0.405-1.309-0.708
	c-0.585-0.315-1.271-0.623-2.04-0.926c-0.768-0.319-1.636-0.588-2.576-0.806c-0.941-0.233-1.919-0.342-2.944-0.342
	c-0.793,0-1.551,0.082-2.271,0.253c-0.734,0.16-1.368,0.417-1.92,0.759c-0.548,0.354-0.988,0.782-1.318,1.308
	c-0.329,0.525-0.5,1.147-0.5,1.868c0,1.051,0.295,1.93,0.879,2.639c0.586,0.721,1.38,1.405,2.395,2.04
	c1.014,0.646,2.186,1.295,3.543,1.953c1.344,0.662,2.771,1.456,4.299,2.382c0.843,0.501,1.623,1.039,2.357,1.611
	c0.745,0.576,1.382,1.223,1.916,1.942c0.539,0.736,0.968,1.565,1.271,2.507C690.314,47.17,690.475,48.249,690.475,49.456z
	 M654.747,58.983v-4.896l-0.146-0.011c-0.256,0.423-0.659,0.965-1.197,1.611c-0.536,0.646-1.22,1.269-2.038,1.879
	c-0.833,0.612-1.808,1.137-2.933,1.577c-1.136,0.439-2.431,0.658-3.884,0.658c-1.417,0-2.7-0.241-3.847-0.72
	c-1.16-0.475-2.163-1.109-2.994-1.93c-0.83-0.806-1.478-1.744-1.931-2.807c-0.45-1.05-0.683-2.175-0.683-3.335
	c0-1.724,0.328-3.176,1-4.375c0.673-1.183,1.553-2.184,2.651-3.005c1.1-0.805,2.347-1.44,3.737-1.903
	c1.405-0.467,2.822-0.833,4.276-1.101c1.465-0.257,2.881-0.44,4.264-0.537c1.391-0.086,2.624-0.172,3.724-0.246v-4.616
	c0-0.927-0.049-1.919-0.159-2.965c-0.109-1.051-0.366-2.028-0.795-2.923c-0.414-0.903-1.036-1.634-1.855-2.222
	c-0.819-0.584-1.966-0.879-3.419-0.879c-1.405,0-2.505,0.245-3.287,0.724c-0.793,0.475-1.392,1.062-1.795,1.771
	c-0.402,0.708-0.673,1.452-0.808,2.257c-0.12,0.794-0.217,1.529-0.269,2.199h-6.29c0.099-1.074,0.331-2.187,0.697-3.347
	c0.367-1.16,1.015-2.223,1.943-3.188c0.939-0.965,2.198-1.771,3.798-2.394c1.6-0.635,3.677-0.954,6.229-0.954
	c1.71,0,3.188,0.171,4.421,0.514c1.222,0.354,2.26,0.817,3.103,1.405c0.856,0.587,1.527,1.257,2.04,2.04
	c0.514,0.771,0.904,1.588,1.184,2.444c0.27,0.864,0.452,1.748,0.538,2.639c0.087,0.891,0.122,1.759,0.122,2.588v24.049H654.747z
	 M654.747,42.777c-0.305,0.023-0.867,0.047-1.685,0.085c-0.806,0.036-1.723,0.121-2.735,0.257c-1.015,0.133-2.078,0.338-3.188,0.646
	c-1.112,0.292-2.125,0.72-3.03,1.257c-0.905,0.548-1.661,1.245-2.26,2.102c-0.598,0.84-0.892,1.88-0.892,3.125
	c0,1.884,0.526,3.335,1.563,4.351c1.04,1.012,2.345,1.514,3.921,1.514c1.1,0,2.149-0.246,3.151-0.735c1.001-0.486,1.881-1.16,2.65-2
	c0.757-0.845,1.368-1.845,1.819-3.004c0.451-1.16,0.685-2.421,0.685-3.776V42.777z"/>
<path fill="#FFFFFF" d="M428.208,212.373c0,2.821-0.308,5.334-0.917,7.545c-0.611,2.227-1.527,4.096-2.773,5.62
	c-1.233,1.526-2.81,2.698-4.727,3.504c-1.905,0.821-4.164,1.222-6.766,1.222c-2.603,0-4.838-0.4-6.706-1.222
	c-1.882-0.806-3.408-1.978-4.605-3.504c-1.185-1.524-2.076-3.394-2.65-5.62c-0.574-2.211-0.856-4.724-0.856-7.545
	c0-2.787,0.282-5.328,0.856-7.599c0.574-2.284,1.465-4.237,2.65-5.877c1.197-1.622,2.723-2.892,4.605-3.786
	c1.868-0.892,4.104-1.343,6.706-1.343c2.602,0,4.861,0.451,6.766,1.343c1.917,0.895,3.493,2.164,4.727,3.786
	c1.246,1.64,2.162,3.593,2.773,5.877C427.9,207.045,428.208,209.586,428.208,212.373 M422.124,212.591
	c0-1.904-0.122-3.812-0.354-5.702c-0.245-1.907-0.696-3.604-1.368-5.106c-0.66-1.502-1.588-2.725-2.773-3.666
	c-1.185-0.938-2.711-1.418-4.604-1.418c-1.234,0-2.32,0.223-3.236,0.65c-0.917,0.425-1.7,1.013-2.347,1.771
	c-0.646,0.744-1.172,1.636-1.575,2.663c-0.404,1.027-0.733,2.125-0.965,3.308c-0.246,1.188-0.402,2.405-0.489,3.689
	c-0.085,1.269-0.123,2.542-0.123,3.812c0,1.781,0.098,3.568,0.306,5.328c0.208,1.767,0.623,3.343,1.256,4.748
	c0.625,1.394,1.516,2.518,2.665,3.385c1.148,0.853,2.648,1.281,4.507,1.281c1.893,0,3.419-0.429,4.604-1.281
	c1.185-0.867,2.113-1.991,2.773-3.385c0.672-1.405,1.123-2.981,1.368-4.748C422.002,216.159,422.124,214.372,422.124,212.591z
	 M382.979,185.462v-6.581h6.144v6.581H382.979z M383.333,229.447v-34.886h5.435v34.886H383.333z M371.301,229.669
	c0,5.312-1.343,9.22-4.019,11.71c-2.686,2.491-6.693,3.737-12.005,3.737c-1.881,0-3.579-0.12-5.094-0.378
	c-1.514-0.245-2.845-0.561-3.994-0.938v-6.025c0.744,0.44,1.502,0.857,2.271,1.262c0.782,0.401,1.576,0.755,2.394,1.048
	c0.831,0.307,1.699,0.552,2.602,0.747c0.905,0.183,1.87,0.28,2.896,0.28c1.6,0,2.944-0.229,4.018-0.697
	c1.086-0.463,1.991-1.062,2.711-1.794c0.708-0.72,1.259-1.542,1.636-2.444c0.391-0.914,0.674-1.794,0.843-2.674
	c0.183-0.868,0.282-1.674,0.306-2.433c0.024-0.743,0.037-1.343,0.037-1.771v-6.901h-0.146c-0.148,0.577-0.428,1.258-0.842,2.079
	c-0.417,0.806-1.003,1.575-1.748,2.308c-0.758,0.72-1.697,1.355-2.834,1.879c-1.125,0.526-2.456,0.784-3.981,0.784
	c-2.225,0-4.118-0.487-5.704-1.464c-1.59-0.98-2.896-2.312-3.898-3.97c-1.011-1.675-1.771-3.604-2.259-5.803
	c-0.488-2.199-0.731-4.508-0.731-6.939c0-2.441,0.255-4.715,0.757-6.838c0.5-2.126,1.257-3.983,2.283-5.571
	c1.025-1.575,2.31-2.821,3.861-3.74c1.55-0.902,3.37-1.354,5.472-1.354c1.673,0,3.064,0.28,4.189,0.844
	c1.123,0.561,2.04,1.219,2.771,2.002c0.722,0.77,1.296,1.575,1.699,2.421c0.403,0.828,0.72,1.536,0.965,2.101h0.146v-6.574h5.398
	V229.669z M365.902,211.555c0-1.553-0.16-3.164-0.463-4.849c-0.306-1.686-0.808-3.227-1.491-4.62
	c-0.673-1.394-1.551-2.537-2.638-3.456c-1.088-0.904-2.394-1.354-3.922-1.354c-1.454,0-2.662,0.463-3.627,1.378
	c-0.965,0.918-1.745,2.077-2.333,3.482c-0.586,1.418-0.988,2.954-1.232,4.617c-0.233,1.673-0.356,3.272-0.356,4.802
	c0,1.502,0.123,3.103,0.38,4.776c0.245,1.686,0.659,3.233,1.245,4.674c0.585,1.433,1.368,2.616,2.345,3.545
	c0.977,0.927,2.199,1.39,3.653,1.39c1.477,0,2.748-0.439,3.822-1.319c1.077-0.891,1.956-2.023,2.627-3.417
	c0.686-1.405,1.186-2.942,1.502-4.644C365.743,214.875,365.902,213.2,365.902,211.555z M316.923,207.838
	c0,1.284,0.085,2.65,0.257,4.083c0.16,1.428,0.44,2.846,0.831,4.238c0.403,1.39,0.928,2.721,1.574,4.005
	c0.66,1.269,1.491,2.394,2.493,3.371c1,0.976,2.186,1.759,3.542,2.331c1.356,0.576,2.93,0.855,4.726,0.855
	c0.783,0,1.467-0.023,2.04-0.086c0.575-0.058,1.088-0.144,1.553-0.228c0.463-0.102,0.915-0.212,1.354-0.332
	c0.452-0.12,0.917-0.233,1.417-0.354v3.152c-0.708,0.183-1.379,0.377-2.002,0.549c-0.623,0.185-1.258,0.327-1.917,0.451
	c-0.648,0.121-1.356,0.207-2.115,0.281c-0.744,0.074-1.623,0.108-2.626,0.108c-2.602,0-4.958-0.4-7.058-1.222
	c-2.115-0.806-3.921-2.012-5.426-3.627c-1.502-1.611-2.674-3.612-3.493-6.033c-0.817-2.405-1.231-5.203-1.231-8.402
	c0-2.503,0.255-4.8,0.78-6.902c0.525-2.101,1.356-3.918,2.479-5.447c1.113-1.526,2.579-2.71,4.361-3.577
	c1.783-0.856,3.959-1.284,6.51-1.284c2.077,0,3.824,0.28,5.241,0.844c1.428,0.561,2.59,1.28,3.505,2.16
	c0.928,0.892,1.638,1.868,2.138,2.959c0.5,1.085,0.866,2.148,1.088,3.187c0.231,1.036,0.352,2.002,0.391,2.881
	c0.035,0.88,0.06,1.563,0.06,2.039H316.923z M331.74,204.615c0-0.748-0.074-1.575-0.234-2.491c-0.157-0.917-0.474-1.782-0.975-2.592
	c-0.502-0.817-1.234-1.49-2.175-2.028c-0.94-0.536-2.186-0.806-3.737-0.806c-1.051,0-1.955,0.147-2.736,0.452
	c-0.771,0.296-1.442,0.685-1.991,1.164c-0.539,0.475-1.002,1.013-1.368,1.61c-0.379,0.6-0.673,1.184-0.881,1.771
	c-0.218,0.588-0.366,1.137-0.452,1.662c-0.083,0.525-0.121,0.953-0.121,1.257H331.74z M298.175,229.447l-2.077-10.346
	c-0.477-2.383-0.99-4.386-1.539-5.986c-0.549-1.611-1.282-2.907-2.199-3.873c-0.928-0.965-2.111-1.646-3.567-2.05
	c-1.454-0.405-3.322-0.612-5.581-0.612h-2.796v22.867h-6.083v-50.566h11.127c1.417,0,2.833,0.074,4.263,0.23
	c1.429,0.159,2.796,0.428,4.102,0.82c1.295,0.401,2.519,0.915,3.639,1.561c1.139,0.646,2.116,1.468,2.945,2.456
	c0.819,0.989,1.465,2.161,1.941,3.519c0.478,1.365,0.723,2.953,0.723,4.765c0,1.404-0.197,2.673-0.574,3.81
	c-0.379,1.137-0.893,2.124-1.516,2.994c-0.634,0.855-1.355,1.599-2.174,2.233c-0.806,0.634-1.637,1.159-2.465,1.575
	c-0.833,0.417-1.663,0.732-2.468,0.966c-0.808,0.233-1.541,0.366-2.187,0.417v0.167c1.979,0.319,3.565,0.845,4.75,1.576
	c1.173,0.747,2.113,1.65,2.785,2.725c0.685,1.074,1.199,2.296,1.539,3.666c0.354,1.366,0.685,2.821,0.991,4.348l2.65,12.739H298.175
	z M296.562,192.306c0-2.056-0.366-3.701-1.086-4.947c-0.733-1.233-1.638-2.188-2.724-2.85c-1.088-0.646-2.259-1.074-3.507-1.28
	c-1.258-0.206-2.405-0.308-3.456-0.308h-5.374v19.616h3.371c0.757,0,1.6-0.047,2.516-0.156c0.914-0.112,1.856-0.307,2.808-0.576
	c0.954-0.28,1.882-0.645,2.773-1.12c0.905-0.479,1.699-1.102,2.384-1.871c0.695-0.757,1.258-1.676,1.672-2.737
	C296.354,195.014,296.562,193.756,296.562,192.306z M834.111,127.141c0,2.821-0.305,5.336-0.916,7.546
	c-0.611,2.227-1.528,4.095-2.772,5.62c-1.232,1.526-2.81,2.698-4.728,3.507c-1.906,0.817-4.165,1.218-6.767,1.218
	c-2.601,0-4.838-0.401-6.706-1.218c-1.88-0.809-3.407-1.981-4.604-3.507c-1.186-1.525-2.076-3.394-2.651-5.62
	c-0.574-2.21-0.855-4.725-0.855-7.546c0-2.787,0.281-5.329,0.855-7.598c0.575-2.284,1.466-4.238,2.651-5.876
	c1.196-1.623,2.724-2.892,4.604-3.787c1.868-0.892,4.105-1.343,6.706-1.343c2.602,0,4.86,0.451,6.767,1.343
	c1.918,0.895,3.495,2.164,4.728,3.787c1.244,1.638,2.161,3.592,2.772,5.876C833.807,121.812,834.111,124.354,834.111,127.141z
	 M828.028,127.358c0-1.903-0.122-3.81-0.354-5.702c-0.243-1.907-0.695-3.604-1.368-5.106c-0.66-1.502-1.588-2.724-2.771-3.667
	c-1.187-0.938-2.713-1.417-4.606-1.417c-1.233,0-2.319,0.222-3.235,0.65c-0.917,0.424-1.699,1.012-2.345,1.771
	c-0.649,0.743-1.174,1.635-1.577,2.662c-0.402,1.027-0.733,2.125-0.966,3.309c-0.243,1.187-0.401,2.405-0.488,3.689
	c-0.085,1.269-0.121,2.541-0.121,3.81c0,1.783,0.099,3.57,0.305,5.329c0.209,1.767,0.622,3.343,1.259,4.752
	c0.623,1.389,1.515,2.514,2.662,3.382c1.148,0.852,2.65,1.28,4.507,1.28c1.894,0,3.42-0.428,4.606-1.28
	c1.184-0.868,2.111-1.993,2.771-3.382c0.673-1.409,1.125-2.985,1.368-4.752C827.906,130.928,828.028,129.141,828.028,127.358z
	 M789.491,144.215v-22.586c0-0.926-0.022-1.903-0.074-2.919c-0.048-1.012-0.217-1.941-0.535-2.783
	c-0.307-0.856-0.793-1.553-1.455-2.101c-0.646-0.549-1.589-0.818-2.808-0.818c-1.208,0-2.322,0.241-3.322,0.732
	c-1.002,0.491-1.893,1.148-2.688,1.993c-0.783,0.829-1.465,1.793-2.041,2.879c-0.572,1.075-1.05,2.222-1.429,3.433
	c-0.378,1.2-0.672,2.433-0.866,3.663c-0.183,1.25-0.281,2.421-0.281,3.546v14.961h-5.398v-34.885h5.252v8.585h0.146
	c0.525-1.097,1.159-2.21,1.893-3.331c0.746-1.125,1.613-2.125,2.615-3.021c1.001-0.903,2.162-1.623,3.493-2.183
	c1.317-0.564,2.846-0.845,4.557-0.845c1.525,0,2.819,0.296,3.87,0.879c1.05,0.588,1.905,1.332,2.578,2.234
	c0.66,0.908,1.146,1.896,1.44,2.97c0.305,1.074,0.454,2.102,0.454,3.079v26.517H789.491z M751.53,144.215v-4.896l-0.146-0.012
	c-0.257,0.425-0.659,0.962-1.198,1.612c-0.535,0.646-1.221,1.269-2.04,1.88c-0.83,0.611-1.808,1.136-2.931,1.576
	c-1.137,0.44-2.431,0.658-3.884,0.658c-1.417,0-2.699-0.241-3.848-0.72c-1.162-0.475-2.162-1.109-2.993-1.93
	c-0.83-0.806-1.477-1.748-1.93-2.807c-0.452-1.051-0.684-2.176-0.684-3.335c0-1.724,0.329-3.176,1.002-4.375
	c0.671-1.183,1.552-2.184,2.649-3.005c1.099-0.806,2.345-1.44,3.737-1.903c1.406-0.467,2.821-0.833,4.276-1.102
	c1.465-0.257,2.882-0.44,4.262-0.538c1.394-0.085,2.627-0.171,3.726-0.245v-4.616c0-0.927-0.049-1.919-0.158-2.97
	c-0.11-1.047-0.367-2.024-0.795-2.919c-0.414-0.903-1.038-1.635-1.856-2.223c-0.819-0.583-1.966-0.879-3.419-0.879
	c-1.405,0-2.505,0.245-3.287,0.724c-0.794,0.475-1.392,1.058-1.794,1.771c-0.405,0.709-0.674,1.452-0.808,2.258
	c-0.122,0.793-0.218,1.526-0.27,2.199h-6.289c0.098-1.075,0.329-2.188,0.696-3.348c0.367-1.16,1.015-2.222,1.943-3.187
	c0.939-0.966,2.196-1.771,3.797-2.394c1.602-0.634,3.677-0.954,6.23-0.954c1.711,0,3.188,0.171,4.42,0.514
	c1.222,0.354,2.26,0.817,3.104,1.405c0.854,0.587,1.527,1.257,2.04,2.039c0.514,0.771,0.904,1.588,1.185,2.444
	c0.269,0.864,0.451,1.748,0.537,2.639c0.085,0.891,0.122,1.759,0.122,2.588v24.049H751.53z M751.53,128.009
	c-0.306,0.023-0.867,0.046-1.685,0.085c-0.808,0.035-1.725,0.12-2.736,0.257c-1.017,0.132-2.076,0.338-3.188,0.646
	c-1.113,0.292-2.125,0.72-3.029,1.257c-0.906,0.549-1.663,1.245-2.26,2.102c-0.599,0.841-0.893,1.88-0.893,3.125
	c0,1.884,0.523,3.335,1.563,4.352c1.037,1.012,2.345,1.514,3.922,1.514c1.1,0,2.148-0.246,3.15-0.736
	c1.002-0.486,1.882-1.16,2.649-2.004c0.758-0.841,1.368-1.841,1.82-3c0.453-1.16,0.685-2.421,0.685-3.775V128.009z M725.439,127.004
	c0,3.056-0.341,5.706-1.013,7.952c-0.684,2.261-1.662,4.129-2.942,5.62c-1.271,1.491-2.824,2.616-4.655,3.347
	c-1.822,0.744-3.858,1.109-6.132,1.109c-2.284,0-4.213-0.303-5.778-0.915c-1.562-0.611-2.844-1.405-3.858-2.394
	c-1.014-0.989-1.796-2.113-2.344-3.382c-0.552-1.261-0.954-2.542-1.211-3.849c-0.244-1.296-0.393-2.565-0.44-3.787
	c-0.048-1.233-0.071-2.319-0.071-3.273V93.65h5.436v21.97h0.146c0.257-0.526,0.647-1.195,1.149-2
	c0.501-0.821,1.146-1.588,1.966-2.347c0.806-0.743,1.782-1.393,2.931-1.93c1.148-0.537,2.493-0.806,4.043-0.806
	c2.077,0,3.909,0.439,5.497,1.308c1.587,0.868,2.918,2.113,4.006,3.725c1.086,1.6,1.906,3.541,2.454,5.814
	C725.172,121.646,725.439,124.182,725.439,127.004z M719.357,127.358c0-1.124-0.05-2.284-0.146-3.467
	c-0.098-1.195-0.258-2.359-0.503-3.496c-0.23-1.132-0.561-2.21-0.963-3.222c-0.403-1.012-0.904-1.896-1.503-2.663
	c-0.599-0.759-1.296-1.37-2.113-1.81c-0.808-0.439-1.747-0.657-2.821-0.657c-1.123,0-2.125,0.245-2.992,0.731
	c-0.867,0.49-1.638,1.148-2.298,1.965c-0.646,0.833-1.208,1.771-1.659,2.85c-0.451,1.074-0.82,2.199-1.111,3.382
	c-0.282,1.183-0.49,2.37-0.625,3.576c-0.132,1.2-0.193,2.336-0.193,3.387c0,1.577,0.096,3.164,0.305,4.775s0.599,3.066,1.185,4.359
	c0.574,1.308,1.406,2.37,2.479,3.188c1.074,0.817,2.479,1.233,4.225,1.233c1.726,0,3.141-0.401,4.265-1.222
	c1.125-0.806,2.002-1.868,2.661-3.199c0.659-1.32,1.126-2.833,1.394-4.519C719.223,130.854,719.357,129.117,719.357,127.358z
	 M688.723,114.9c-1.916,0-3.493,0.366-4.762,1.113c-1.271,0.731-2.272,1.709-3.029,2.919c-0.746,1.195-1.282,2.564-1.589,4.09
	c-0.306,1.525-0.465,3.091-0.465,4.69v16.502h-5.398v-34.885h5.398v8.294h0.148c0.427-0.954,0.988-1.966,1.673-3.04
	c0.695-1.079,1.515-2.051,2.454-2.958c0.942-0.892,2.016-1.624,3.201-2.211c1.198-0.583,2.491-0.879,3.907-0.879v6.363H688.723z
	 M661.841,125.245c0,1.261-0.025,2.64-0.074,4.118c-0.051,1.479-0.22,2.942-0.537,4.398c-0.306,1.452-0.808,2.869-1.479,4.227
	c-0.682,1.354-1.647,2.561-2.881,3.611c-1.248,1.051-2.821,1.884-4.738,2.507c-1.92,0.623-4.275,0.926-7.074,0.926
	c-2.736,0-5.056-0.303-6.938-0.926c-1.88-0.623-3.444-1.456-4.665-2.507c-1.233-1.05-2.174-2.257-2.833-3.611
	c-0.647-1.358-1.137-2.775-1.443-4.227c-0.316-1.456-0.487-2.919-0.536-4.398c-0.05-1.479-0.074-2.857-0.074-4.118V93.65h6.085
	v31.424c0,1.113,0.01,2.3,0.048,3.518c0.034,1.234,0.159,2.444,0.342,3.639c0.196,1.187,0.5,2.335,0.929,3.409
	c0.439,1.086,1.036,2.04,1.831,2.869c0.782,0.821,1.784,1.479,3.005,1.969c1.211,0.486,2.699,0.731,4.472,0.731
	c1.733,0,3.211-0.245,4.421-0.731c1.196-0.49,2.185-1.148,2.969-1.969c0.768-0.829,1.367-1.783,1.782-2.869
	c0.415-1.074,0.72-2.222,0.917-3.409c0.183-1.195,0.304-2.405,0.342-3.639c0.036-1.218,0.049-2.405,0.049-3.518V93.65h6.083V125.245
	z M600.366,127.141c0,2.821-0.305,5.336-0.916,7.546c-0.612,2.227-1.528,4.095-2.771,5.62c-1.235,1.526-2.812,2.698-4.729,3.507
	c-1.905,0.817-4.165,1.218-6.768,1.218c-2.601,0-4.836-0.401-6.706-1.218c-1.881-0.809-3.407-1.981-4.604-3.507
	c-1.185-1.525-2.076-3.394-2.65-5.62c-0.574-2.21-0.857-4.725-0.857-7.546c0-2.787,0.283-5.329,0.857-7.598
	c0.574-2.284,1.466-4.238,2.65-5.876c1.196-1.623,2.723-2.892,4.604-3.787c1.87-0.892,4.105-1.343,6.706-1.343
	c2.603,0,4.862,0.451,6.768,1.343c1.917,0.895,3.493,2.164,4.729,3.787c1.243,1.638,2.159,3.592,2.771,5.876
	C600.062,121.812,600.366,124.354,600.366,127.141z M594.283,127.358c0-1.903-0.124-3.81-0.354-5.702
	c-0.245-1.907-0.697-3.604-1.369-5.106c-0.66-1.502-1.588-2.724-2.772-3.667c-1.185-0.938-2.712-1.417-4.605-1.417
	c-1.234,0-2.319,0.222-3.235,0.65c-0.917,0.424-1.699,1.012-2.345,1.771c-0.648,0.743-1.174,1.635-1.576,2.662
	c-0.403,1.027-0.733,2.125-0.966,3.309c-0.244,1.187-0.403,2.405-0.489,3.689c-0.085,1.269-0.121,2.541-0.121,3.81
	c0,1.783,0.097,3.57,0.305,5.329c0.208,1.767,0.622,3.343,1.26,4.752c0.622,1.389,1.514,2.514,2.662,3.382
	c1.147,0.852,2.649,1.28,4.506,1.28c1.894,0,3.421-0.428,4.605-1.28c1.185-0.868,2.112-1.993,2.772-3.382
	c0.672-1.409,1.124-2.985,1.369-4.752C594.159,130.928,594.283,129.141,594.283,127.358z M555.868,112.69v20.678
	c0,1.028,0.025,2.028,0.086,3.005s0.28,1.845,0.672,2.592c0.38,0.755,0.977,1.366,1.782,1.829c0.808,0.467,1.967,0.696,3.47,0.696
	c0.906,0,1.6-0.035,2.076-0.121c0.478-0.085,0.88-0.183,1.222-0.304v3.651c-0.891,0.16-1.65,0.257-2.272,0.28
	c-0.634,0.023-1.319,0.035-2.063,0.035c-3.578,0-6.205-0.681-7.865-2.04c-1.673-1.354-2.504-3.616-2.504-6.764V112.69h-6.155v-3.359
	h6.155v-8.197l5.397-3.296v11.493h9.517v3.359H555.868z M530.621,144.215v-22.586c0-0.926-0.022-1.903-0.074-2.919
	c-0.049-1.012-0.218-1.941-0.535-2.783c-0.307-0.856-0.797-1.553-1.456-2.101c-0.646-0.549-1.588-0.818-2.808-0.818
	c-1.208,0-2.321,0.241-3.321,0.732c-1.003,0.491-1.895,1.148-2.688,1.993c-0.782,0.829-1.465,1.793-2.041,2.879
	c-0.574,1.075-1.049,2.222-1.428,3.433c-0.38,1.2-0.672,2.433-0.866,3.663c-0.184,1.25-0.282,2.421-0.282,3.546v14.961h-5.397
	v-34.885h5.249v8.585h0.148c0.525-1.097,1.159-2.21,1.894-3.331c0.744-1.125,1.613-2.125,2.613-3.021
	c1.002-0.903,2.161-1.623,3.493-2.183c1.319-0.564,2.848-0.845,4.558-0.845c1.526,0,2.819,0.296,3.87,0.879
	c1.051,0.588,1.905,1.332,2.577,2.234c0.661,0.908,1.147,1.896,1.441,2.97c0.306,1.074,0.451,2.102,0.451,3.079v26.517H530.621z
	 M480.311,122.606c0,1.285,0.085,2.65,0.257,4.083c0.16,1.429,0.439,2.845,0.832,4.239c0.401,1.389,0.927,2.724,1.573,4.005
	c0.66,1.269,1.49,2.394,2.493,3.37c1,0.977,2.186,1.759,3.541,2.332c1.357,0.576,2.931,0.856,4.728,0.856
	c0.782,0,1.468-0.023,2.039-0.085c0.574-0.058,1.088-0.144,1.554-0.229c0.462-0.102,0.914-0.21,1.354-0.331
	c0.452-0.121,0.916-0.233,1.417-0.354v3.152c-0.709,0.183-1.381,0.377-2.003,0.549c-0.622,0.183-1.257,0.327-1.917,0.452
	c-0.647,0.121-1.355,0.206-2.115,0.28c-0.743,0.074-1.623,0.109-2.625,0.109c-2.602,0-4.959-0.401-7.059-1.218
	c-2.114-0.809-3.92-2.016-5.425-3.631c-1.502-1.611-2.674-3.612-3.493-6.033c-0.818-2.405-1.233-5.203-1.233-8.402
	c0-2.502,0.256-4.799,0.782-6.901c0.524-2.102,1.356-3.918,2.479-5.449c1.114-1.525,2.579-2.708,4.361-3.576
	c1.783-0.856,3.958-1.285,6.509-1.285c2.078,0,3.824,0.281,5.242,0.845c1.428,0.56,2.589,1.28,3.503,2.159
	c0.93,0.892,1.638,1.869,2.14,2.958c0.5,1.086,0.865,2.148,1.087,3.188c0.232,1.04,0.354,2.001,0.393,2.884
	c0.034,0.875,0.06,1.561,0.06,2.036H480.311z M495.128,119.383c0-0.747-0.074-1.576-0.234-2.49
	c-0.157-0.919-0.475-1.782-0.977-2.593c-0.5-0.817-1.232-1.487-2.174-2.027c-0.939-0.537-2.186-0.806-3.736-0.806
	c-1.051,0-1.956,0.148-2.736,0.452c-0.771,0.295-1.442,0.685-1.991,1.164c-0.539,0.475-1.001,1.012-1.366,1.611
	c-0.381,0.6-0.674,1.183-0.882,1.771c-0.219,0.588-0.366,1.137-0.452,1.663c-0.084,0.525-0.12,0.953-0.12,1.256H495.128z
	 M459.729,144.215v-23.438c0-0.673-0.023-1.455-0.074-2.347c-0.049-0.891-0.22-1.743-0.537-2.564
	c-0.306-0.806-0.793-1.491-1.465-2.04c-0.672-0.549-1.613-0.818-2.821-0.818c-1.052,0-2.004,0.257-2.834,0.755
	c-0.832,0.502-1.589,1.164-2.26,2.004c-0.662,0.833-1.247,1.782-1.735,2.86c-0.486,1.075-0.879,2.184-1.197,3.343
	c-0.305,1.16-0.536,2.297-0.694,3.433c-0.16,1.137-0.231,2.187-0.231,3.141v15.67h-5.438v-22.586c0-0.926-0.022-1.903-0.071-2.919
	c-0.05-1.012-0.22-1.941-0.537-2.783c-0.306-0.856-0.782-1.553-1.43-2.101c-0.647-0.549-1.577-0.818-2.797-0.818
	c-1.05,0-1.99,0.241-2.847,0.732c-0.843,0.491-1.6,1.148-2.271,1.993c-0.66,0.829-1.245,1.793-1.733,2.879
	c-0.49,1.075-0.892,2.222-1.211,3.433c-0.328,1.2-0.562,2.433-0.72,3.663c-0.159,1.25-0.231,2.421-0.231,3.546v14.961h-5.4v-34.885
	h5.252v8.585h0.148c0.451-1.097,1-2.21,1.636-3.331c0.623-1.125,1.381-2.125,2.247-3.021c0.867-0.903,1.881-1.623,3.041-2.183
	c1.159-0.564,2.505-0.845,4.032-0.845c1.526,0,2.809,0.296,3.858,0.879c1.051,0.588,1.905,1.332,2.579,2.234
	c0.657,0.908,1.146,1.896,1.44,2.97c0.305,1.074,0.453,2.102,0.453,3.079h0.146c0.146-0.405,0.354-0.915,0.646-1.514
	c0.279-0.611,0.636-1.257,1.051-1.942c0.417-0.673,0.916-1.358,1.491-2.04c0.562-0.673,1.233-1.295,1.979-1.845
	c0.756-0.549,1.586-0.993,2.491-1.319c0.904-0.331,1.918-0.502,3.041-0.502c1.405,0,2.639,0.245,3.701,0.731
	c1.063,0.491,1.943,1.164,2.65,2.032c0.696,0.853,1.223,1.88,1.575,3.087c0.343,1.21,0.514,2.53,0.514,3.958v25.871H459.729z
	 M404.129,144.215v-4.896l-0.146-0.012c-0.257,0.425-0.659,0.962-1.197,1.612c-0.537,0.646-1.222,1.269-2.04,1.88
	c-0.832,0.611-1.807,1.136-2.933,1.576c-1.136,0.44-2.43,0.658-3.883,0.658c-1.417,0-2.699-0.241-3.848-0.72
	c-1.16-0.475-2.161-1.109-2.993-1.93c-0.831-0.806-1.477-1.748-1.929-2.807c-0.453-1.051-0.685-2.176-0.685-3.335
	c0-1.724,0.329-3.176,1.002-4.375c0.671-1.183,1.55-2.184,2.65-3.005c1.098-0.806,2.346-1.44,3.739-1.903
	c1.403-0.467,2.82-0.833,4.273-1.102c1.466-0.257,2.882-0.44,4.264-0.538c1.391-0.085,2.625-0.171,3.724-0.245v-4.616
	c0-0.927-0.048-1.919-0.157-2.97c-0.111-1.047-0.368-2.024-0.796-2.919c-0.415-0.903-1.037-1.635-1.856-2.223
	c-0.817-0.583-1.966-0.879-3.419-0.879c-1.405,0-2.504,0.245-3.285,0.724c-0.795,0.475-1.393,1.058-1.796,1.771
	c-0.403,0.709-0.671,1.452-0.805,2.258c-0.123,0.793-0.22,1.526-0.271,2.199h-6.29c0.097-1.075,0.331-2.188,0.697-3.348
	c0.366-1.16,1.014-2.222,1.942-3.187c0.94-0.966,2.2-1.771,3.799-2.394c1.6-0.634,3.676-0.954,6.229-0.954
	c1.71,0,3.188,0.171,4.421,0.514c1.222,0.354,2.259,0.817,3.102,1.405c0.855,0.587,1.527,1.257,2.041,2.039
	c0.512,0.771,0.903,1.588,1.183,2.444c0.269,0.864,0.452,1.748,0.537,2.639c0.086,0.891,0.123,1.759,0.123,2.588v24.049H404.129z
	 M404.129,128.009c-0.305,0.023-0.867,0.046-1.685,0.085c-0.806,0.035-1.722,0.12-2.736,0.257c-1.014,0.132-2.077,0.338-3.188,0.646
	c-1.111,0.292-2.125,0.72-3.03,1.257c-0.903,0.549-1.66,1.245-2.259,2.102c-0.598,0.841-0.892,1.88-0.892,3.125
	c0,1.884,0.525,3.335,1.562,4.352c1.039,1.012,2.347,1.514,3.921,1.514c1.1,0,2.148-0.246,3.151-0.736
	c1.002-0.486,1.882-1.16,2.65-2.004c0.757-0.841,1.368-1.841,1.819-3c0.454-1.16,0.685-2.421,0.685-3.775V128.009z"/>
<path fill="#FFFFFF" d="M633.664,293.069c0,1.284,0.086,2.65,0.256,4.083c0.158,1.428,0.441,2.846,0.831,4.239
	c0.402,1.389,0.927,2.72,1.576,4.004c0.66,1.269,1.489,2.394,2.493,3.371c1,0.976,2.185,1.759,3.539,2.331
	c1.356,0.576,2.933,0.855,4.729,0.855c0.781,0,1.466-0.023,2.039-0.085c0.574-0.062,1.086-0.145,1.552-0.229
	c0.465-0.102,0.917-0.211,1.356-0.332c0.451-0.12,0.914-0.233,1.416-0.354v3.153c-0.708,0.183-1.38,0.376-2.005,0.549
	c-0.622,0.184-1.257,0.326-1.916,0.45c-0.646,0.121-1.354,0.207-2.113,0.281c-0.745,0.074-1.625,0.108-2.625,0.108
	c-2.603,0-4.961-0.4-7.062-1.222c-2.112-0.806-3.921-2.012-5.422-3.627c-1.503-1.611-2.674-3.612-3.493-6.033
	c-0.818-2.405-1.233-5.203-1.233-8.402c0-2.507,0.256-4.8,0.781-6.901s1.354-3.919,2.479-5.448c1.111-1.526,2.577-2.713,4.36-3.577
	c1.784-0.855,3.958-1.284,6.51-1.284c2.075,0,3.824,0.28,5.239,0.844c1.431,0.561,2.592,1.28,3.506,2.16
	c0.929,0.892,1.637,1.869,2.138,2.959c0.502,1.085,0.867,2.148,1.087,3.187c0.232,1.036,0.355,2.002,0.393,2.881
	c0.036,0.88,0.062,1.564,0.062,2.039H633.664z M648.479,289.847c0-0.747-0.072-1.575-0.232-2.49
	c-0.159-0.918-0.476-1.783-0.976-2.594c-0.502-0.815-1.234-1.489-2.174-2.026c-0.941-0.537-2.188-0.806-3.738-0.806
	c-1.052,0-1.953,0.146-2.737,0.451c-0.768,0.296-1.44,0.686-1.991,1.163c-0.536,0.477-1.001,1.013-1.366,1.612
	c-0.378,0.599-0.671,1.184-0.881,1.771c-0.22,0.585-0.366,1.136-0.45,1.662c-0.086,0.521-0.124,0.953-0.124,1.257H648.479z
	 M613.144,283.152v20.678c0,1.027,0.025,2.028,0.085,3.006c0.061,0.977,0.281,1.845,0.672,2.592c0.38,0.755,0.979,1.366,1.783,1.828
	c0.807,0.468,1.968,0.697,3.469,0.697c0.905,0,1.601-0.034,2.078-0.12c0.476-0.085,0.879-0.184,1.221-0.308v3.654
	c-0.891,0.16-1.65,0.257-2.272,0.281c-0.634,0.023-1.32,0.034-2.063,0.034c-3.578,0-6.206-0.681-7.866-2.039
	c-1.673-1.354-2.505-3.615-2.505-6.765v-23.539h-6.154v-3.357h6.154v-8.197l5.399-3.298v11.495h9.517v3.357H613.144z
	 M597.899,305.15c0,1.37-0.244,2.662-0.743,3.912c-0.502,1.23-1.283,2.33-2.334,3.284c-1.051,0.949-2.394,1.721-4.044,2.296
	c-1.635,0.573-3.614,0.853-5.898,0.853c-2.405,0-4.385-0.155-5.924-0.486c-1.539-0.319-2.725-0.649-3.553-0.976v-5.512
	c0.194,0.123,0.586,0.354,1.195,0.696c0.612,0.342,1.355,0.709,2.26,1.112c0.891,0.39,1.88,0.732,2.969,1.024
	c1.087,0.307,2.198,0.452,3.347,0.452c1,0,1.941-0.11,2.833-0.316c0.903-0.217,1.674-0.561,2.333-1.027
	c0.646-0.463,1.173-1.05,1.576-1.744c0.39-0.708,0.586-1.563,0.586-2.568c0-0.875-0.196-1.646-0.586-2.28
	c-0.403-0.649-0.93-1.233-1.613-1.771c-0.685-0.541-1.477-1.062-2.382-1.576c-0.904-0.514-1.867-1.073-2.895-1.66
	c-1.098-0.648-2.212-1.274-3.323-1.87c-1.122-0.587-2.147-1.272-3.064-2.039c-0.916-0.759-1.662-1.649-2.235-2.677
	c-0.574-1.023-0.854-2.281-0.854-3.761c0-3.031,1.002-5.375,2.992-7.025c1.988-1.661,4.971-2.49,8.952-2.49
	c0.93,0,1.808,0.047,2.651,0.148c0.83,0.097,1.589,0.206,2.284,0.354c0.697,0.144,1.307,0.279,1.856,0.411
	c0.55,0.125,1.002,0.234,1.368,0.308v5.215c-0.292-0.16-0.723-0.404-1.309-0.708c-0.586-0.319-1.269-0.622-2.039-0.93
	c-0.768-0.315-1.638-0.584-2.577-0.805c-0.94-0.23-1.916-0.344-2.943-0.344c-0.795,0-1.552,0.086-2.271,0.257
	c-0.733,0.16-1.367,0.417-1.917,0.76c-0.55,0.354-0.99,0.782-1.319,1.307c-0.33,0.526-0.501,1.148-0.501,1.869
	c0,1.051,0.293,1.93,0.879,2.639c0.586,0.72,1.382,1.405,2.394,2.039c1.016,0.646,2.188,1.296,3.544,1.953
	c1.342,0.659,2.772,1.455,4.299,2.383c0.842,0.498,1.624,1.038,2.355,1.612c0.746,0.575,1.383,1.221,1.92,1.941
	c0.537,0.731,0.965,1.564,1.271,2.506C597.74,302.865,597.899,303.943,597.899,305.15z M561.916,314.679v-8.513h-0.145
	c-0.832,1.782-1.639,3.284-2.396,4.48c-0.769,1.21-1.611,2.163-2.527,2.883c-0.917,0.709-1.978,1.223-3.188,1.515
	c-1.197,0.309-2.675,0.451-4.41,0.451c-1.465,0-2.71-0.354-3.762-1.05c-1.05-0.705-1.917-1.588-2.59-2.651
	c-0.684-1.062-1.184-2.222-1.503-3.49c-0.329-1.258-0.488-2.468-0.488-3.616v-24.893h5.401v22.572c0,0.927,0.108,1.904,0.316,2.919
	c0.22,1.012,0.561,1.955,1.037,2.811c0.477,0.853,1.124,1.561,1.918,2.109c0.808,0.549,1.783,0.821,2.957,0.821
	c1.073,0,2.039-0.245,2.894-0.734c0.868-0.488,1.637-1.149,2.333-1.989c0.683-0.834,1.283-1.795,1.784-2.896
	c0.501-1.099,0.927-2.247,1.258-3.445c0.328-1.206,0.573-2.429,0.731-3.675c0.159-1.233,0.234-2.421,0.234-3.545v-14.948h5.435
	v34.884H561.916z M533.005,301.107c0,2.505-0.464,4.667-1.391,6.463c-0.94,1.806-2.212,3.298-3.812,4.469
	c-1.613,1.183-3.519,2.052-5.703,2.616c-2.174,0.561-4.508,0.84-7,0.84c-1.478,0-2.859-0.059-4.153-0.194
	c-1.282-0.136-2.441-0.28-3.467-0.451c-1.026-0.16-1.894-0.33-2.591-0.503c-0.708-0.154-1.22-0.292-1.527-0.388v-6.329
	c0.673,0.308,1.479,0.661,2.419,1.062c0.939,0.404,1.967,0.795,3.078,1.16c1.111,0.369,2.282,0.685,3.506,0.93
	c1.233,0.257,2.467,0.378,3.713,0.378c1.599,0,3.029-0.194,4.312-0.572c1.282-0.382,2.368-0.942,3.261-1.701
	c0.893-0.743,1.588-1.67,2.078-2.771c0.488-1.098,0.73-2.37,0.73-3.822c0-1.197-0.206-2.261-0.61-3.21
	c-0.402-0.942-0.966-1.798-1.66-2.593c-0.709-0.781-1.539-1.514-2.505-2.187c-0.977-0.657-2.014-1.308-3.139-1.928
	c-1.123-0.613-2.308-1.232-3.542-1.844c-1.244-0.599-2.479-1.261-3.725-1.942c-1.124-0.6-2.188-1.284-3.202-2.039
	c-1.013-0.771-1.916-1.65-2.686-2.65c-0.781-1.005-1.394-2.141-1.846-3.422c-0.451-1.271-0.683-2.747-0.683-4.409
	c0-2.027,0.38-3.838,1.125-5.423c0.756-1.591,1.819-2.934,3.21-4.031c1.383-1.086,3.053-1.918,5.01-2.479
	c1.954-0.564,4.139-0.844,6.558-0.844c1.002,0,2.027,0.05,3.09,0.147s2.09,0.194,3.078,0.319c0.99,0.121,1.906,0.253,2.737,0.413
	c0.842,0.147,1.514,0.279,2.014,0.378v5.864c-0.574-0.269-1.294-0.561-2.149-0.914c-0.866-0.343-1.818-0.674-2.883-1.006
	c-1.062-0.313-2.197-0.598-3.407-0.816c-1.208-0.233-2.417-0.343-3.639-0.343c-1.332,0-2.542,0.184-3.627,0.55
	c-1.09,0.381-2.029,0.892-2.797,1.541c-0.782,0.657-1.383,1.44-1.808,2.343c-0.428,0.906-0.647,1.907-0.647,2.97
	c0,1.222,0.244,2.307,0.73,3.261c0.49,0.953,1.137,1.823,1.955,2.589c0.807,0.782,1.761,1.489,2.834,2.138
	c1.074,0.634,2.199,1.271,3.396,1.895c1.197,0.622,2.405,1.234,3.614,1.856c1.222,0.623,2.395,1.308,3.519,2.039
	c1.382,0.903,2.59,1.771,3.615,2.577c1.026,0.817,1.88,1.685,2.554,2.611c0.683,0.93,1.196,1.993,1.539,3.169
	C532.835,298.057,533.005,299.472,533.005,301.107z M457.426,293.069c0,1.284,0.084,2.65,0.255,4.083
	c0.16,1.428,0.441,2.846,0.833,4.239c0.399,1.389,0.926,2.72,1.573,4.004c0.66,1.269,1.492,2.394,2.492,3.371
	c1.001,0.976,2.187,1.759,3.544,2.331c1.354,0.576,2.929,0.855,4.725,0.855c0.781,0,1.468-0.023,2.041-0.085
	s1.085-0.145,1.551-0.229c0.465-0.102,0.917-0.211,1.356-0.332c0.452-0.12,0.914-0.233,1.416-0.354v3.153
	c-0.707,0.183-1.379,0.376-2.004,0.549c-0.623,0.184-1.257,0.326-1.917,0.45c-0.647,0.121-1.354,0.207-2.113,0.281
	c-0.745,0.074-1.625,0.108-2.625,0.108c-2.602,0-4.961-0.4-7.061-1.222c-2.112-0.806-3.92-2.012-5.423-3.627
	c-1.502-1.611-2.675-3.612-3.493-6.033c-0.818-2.405-1.234-5.203-1.234-8.402c0-2.507,0.256-4.8,0.782-6.901
	s1.354-3.919,2.479-5.448c1.111-1.526,2.577-2.713,4.361-3.577c1.782-0.855,3.955-1.284,6.509-1.284c2.077,0,3.823,0.28,5.238,0.844
	c1.431,0.561,2.594,1.28,3.509,2.16c0.927,0.892,1.635,1.869,2.136,2.959c0.502,1.085,0.867,2.148,1.087,3.187
	c0.232,1.036,0.354,2.002,0.392,2.881c0.036,0.88,0.061,1.564,0.061,2.039H457.426z M472.241,289.847
	c0-0.747-0.073-1.575-0.232-2.49c-0.16-0.918-0.477-1.783-0.978-2.594c-0.502-0.815-1.233-1.489-2.175-2.026
	c-0.938-0.537-2.186-0.806-3.737-0.806c-1.051,0-1.952,0.146-2.735,0.451c-0.769,0.296-1.442,0.686-1.991,1.163
	c-0.536,0.477-1.002,1.013-1.367,1.612c-0.378,0.599-0.671,1.184-0.88,1.771c-0.22,0.585-0.366,1.136-0.452,1.662
	c-0.085,0.521-0.121,0.953-0.121,1.257H472.241z M834.111,212.373c0,2.821-0.305,5.334-0.916,7.545
	c-0.611,2.227-1.528,4.096-2.772,5.62c-1.232,1.526-2.81,2.698-4.728,3.504c-1.906,0.821-4.165,1.222-6.767,1.222
	c-2.601,0-4.838-0.4-6.706-1.222c-1.88-0.806-3.407-1.978-4.604-3.504c-1.186-1.524-2.076-3.394-2.651-5.62
	c-0.574-2.211-0.855-4.724-0.855-7.545c0-2.787,0.281-5.328,0.855-7.599c0.575-2.284,1.466-4.237,2.651-5.877
	c1.196-1.622,2.724-2.892,4.604-3.786c1.868-0.892,4.105-1.343,6.706-1.343c2.602,0,4.86,0.451,6.767,1.343
	c1.918,0.895,3.495,2.164,4.728,3.786c1.244,1.64,2.161,3.593,2.772,5.877C833.807,207.045,834.111,209.586,834.111,212.373z
	 M828.028,212.591c0-1.904-0.122-3.812-0.354-5.702c-0.243-1.907-0.695-3.604-1.368-5.106c-0.66-1.502-1.588-2.725-2.771-3.666
	c-1.187-0.938-2.713-1.418-4.606-1.418c-1.233,0-2.319,0.223-3.235,0.65c-0.917,0.425-1.699,1.013-2.345,1.771
	c-0.649,0.744-1.174,1.636-1.577,2.663c-0.402,1.027-0.733,2.125-0.966,3.308c-0.243,1.188-0.401,2.405-0.488,3.689
	c-0.085,1.269-0.121,2.542-0.121,3.812c0,1.781,0.099,3.568,0.305,5.328c0.209,1.767,0.622,3.343,1.259,4.748
	c0.623,1.394,1.515,2.518,2.662,3.385c1.148,0.853,2.65,1.281,4.507,1.281c1.894,0,3.42-0.429,4.606-1.281
	c1.184-0.867,2.111-1.991,2.771-3.385c0.673-1.405,1.125-2.981,1.368-4.748C827.906,216.159,828.028,214.372,828.028,212.591z
	 M789.48,229.447v-6.73h-0.146c-0.195,0.573-0.524,1.28-1.002,2.148c-0.476,0.856-1.123,1.686-1.929,2.479
	c-0.819,0.806-1.821,1.492-3.007,2.067c-1.195,0.572-2.588,0.853-4.187,0.853c-1.552,0-2.921-0.229-4.116-0.696
	c-1.199-0.464-2.236-1.109-3.115-1.954c-0.88-0.829-1.613-1.817-2.199-2.942c-0.587-1.136-1.052-2.382-1.393-3.726
	c-0.355-1.341-0.599-2.771-0.757-4.276c-0.16-1.502-0.234-3.028-0.234-4.577c0-2.506,0.247-4.877,0.724-7.087
	c0.475-2.223,1.22-4.154,2.246-5.812c1.027-1.661,2.332-2.981,3.908-3.957c1.563-0.978,3.457-1.468,5.644-1.468
	c1.648,0,3.028,0.269,4.116,0.806c1.1,0.537,2.002,1.176,2.724,1.918c0.721,0.731,1.27,1.503,1.66,2.297
	c0.403,0.806,0.697,1.467,0.917,1.988h0.146v-21.896h5.397v50.566H789.48z M789.48,211.333c0-0.685-0.061-1.514-0.184-2.468
	c-0.11-0.953-0.316-1.953-0.586-3.004c-0.269-1.051-0.636-2.09-1.075-3.113c-0.438-1.027-0.989-1.943-1.623-2.749
	c-0.649-0.816-1.394-1.468-2.236-1.97c-0.854-0.497-1.808-0.754-2.883-0.754c-1.441,0-2.625,0.45-3.579,1.342
	c-0.964,0.892-1.722,2.052-2.283,3.484c-0.549,1.439-0.953,3.051-1.197,4.873c-0.232,1.805-0.354,3.638-0.354,5.471
	c0,1.698,0.097,3.383,0.306,5.079c0.208,1.697,0.562,3.212,1.085,4.547c0.526,1.327,1.235,2.417,2.14,3.245
	c0.89,0.845,2.039,1.262,3.443,1.262c1.369,0,2.603-0.382,3.714-1.148c1.11-0.759,2.05-1.821,2.847-3.176
	c0.78-1.37,1.391-2.981,1.819-4.838C789.26,215.56,789.48,213.532,789.48,211.333z M752.851,229.447v-4.897l-0.146-0.012
	c-0.257,0.425-0.659,0.962-1.198,1.612c-0.535,0.646-1.221,1.268-2.038,1.879c-0.833,0.612-1.809,1.138-2.933,1.578
	c-1.136,0.439-2.431,0.656-3.885,0.656c-1.416,0-2.699-0.241-3.847-0.721c-1.162-0.474-2.162-1.108-2.993-1.93
	c-0.83-0.806-1.477-1.747-1.93-2.807c-0.452-1.05-0.684-2.176-0.684-3.335c0-1.724,0.328-3.176,1-4.375
	c0.674-1.184,1.552-2.187,2.653-3.004c1.097-0.806,2.345-1.44,3.736-1.903c1.405-0.466,2.82-0.833,4.275-1.102
	c1.465-0.257,2.882-0.439,4.264-0.537c1.392-0.085,2.625-0.171,3.725-0.245v-4.616c0-0.926-0.049-1.918-0.159-2.969
	c-0.11-1.047-0.366-2.028-0.795-2.92c-0.415-0.903-1.038-1.636-1.856-2.223c-0.817-0.583-1.966-0.88-3.419-0.88
	c-1.405,0-2.505,0.246-3.287,0.725c-0.794,0.476-1.392,1.059-1.794,1.771c-0.403,0.709-0.674,1.452-0.808,2.258
	c-0.121,0.793-0.218,1.525-0.27,2.198h-6.288c0.097-1.074,0.328-2.187,0.696-3.347c0.366-1.159,1.014-2.222,1.942-3.188
	c0.939-0.965,2.198-1.771,3.798-2.394c1.6-0.635,3.676-0.953,6.229-0.953c1.711,0,3.188,0.17,4.421,0.514
	c1.221,0.354,2.261,0.816,3.103,1.404c0.856,0.589,1.528,1.258,2.04,2.039c0.514,0.771,0.904,1.589,1.185,2.441
	c0.269,0.867,0.45,1.751,0.537,2.643c0.085,0.892,0.122,1.755,0.122,2.587v24.051H752.851z M752.851,213.24
	c-0.306,0.023-0.868,0.047-1.686,0.086c-0.808,0.034-1.722,0.12-2.736,0.257c-1.015,0.132-2.076,0.338-3.188,0.646
	c-1.113,0.292-2.125,0.722-3.03,1.257c-0.905,0.549-1.662,1.246-2.26,2.103c-0.598,0.841-0.89,1.881-0.89,3.125
	c0,1.884,0.521,3.336,1.562,4.352c1.037,1.012,2.345,1.514,3.922,1.514c1.1,0,2.148-0.244,3.15-0.735
	c1.002-0.487,1.882-1.16,2.649-2.005c0.759-0.84,1.368-1.84,1.82-3.001c0.453-1.159,0.686-2.421,0.686-3.774V213.24z
	 M728.151,200.132c-1.917,0-3.492,0.365-4.763,1.112c-1.27,0.732-2.271,1.709-3.027,2.919c-0.747,1.196-1.283,2.565-1.59,4.092
	c-0.304,1.524-0.464,3.09-0.464,4.689v16.503h-5.4v-34.886h5.4v8.295h0.147c0.428-0.954,0.989-1.966,1.673-3.04
	c0.695-1.078,1.514-2.051,2.453-2.958c0.942-0.891,2.017-1.622,3.202-2.21c1.196-0.584,2.49-0.88,3.91-0.88v6.363H728.151z
	 M701.158,229.669c0,5.312-1.342,9.22-4.019,11.71c-2.686,2.491-6.692,3.737-12.005,3.737c-1.881,0-3.578-0.12-5.096-0.378
	c-1.514-0.245-2.844-0.561-3.992-0.938v-6.025c0.745,0.44,1.503,0.857,2.271,1.262c0.782,0.401,1.577,0.755,2.396,1.048
	c0.829,0.307,1.698,0.552,2.603,0.747c0.902,0.183,1.868,0.28,2.894,0.28c1.6,0,2.944-0.229,4.019-0.697
	c1.085-0.463,1.991-1.062,2.711-1.794c0.708-0.72,1.26-1.542,1.636-2.444c0.392-0.914,0.674-1.794,0.845-2.674
	c0.183-0.868,0.281-1.674,0.304-2.433c0.024-0.743,0.037-1.343,0.037-1.771v-6.901h-0.146c-0.147,0.577-0.425,1.258-0.842,2.079
	c-0.417,0.806-1.003,1.575-1.747,2.308c-0.758,0.72-1.697,1.355-2.834,1.879c-1.123,0.526-2.456,0.784-3.981,0.784
	c-2.225,0-4.118-0.487-5.704-1.464c-1.588-0.98-2.896-2.312-3.896-3.97c-1.014-1.675-1.772-3.604-2.262-5.803
	c-0.488-2.199-0.73-4.508-0.73-6.939c0-2.441,0.254-4.715,0.756-6.838c0.5-2.126,1.257-3.983,2.285-5.571
	c1.025-1.575,2.307-2.821,3.858-3.74c1.552-0.902,3.37-1.354,5.473-1.354c1.673,0,3.065,0.28,4.189,0.844
	c1.123,0.561,2.04,1.219,2.773,2.002c0.72,0.77,1.294,1.575,1.695,2.421c0.404,0.828,0.724,1.536,0.966,2.101h0.146v-6.574h5.398
	V229.669z M695.76,211.555c0-1.553-0.158-3.164-0.462-4.849c-0.307-1.686-0.808-3.227-1.492-4.62
	c-0.671-1.394-1.55-2.537-2.637-3.456c-1.089-0.904-2.396-1.354-3.921-1.354c-1.456,0-2.665,0.463-3.63,1.378
	c-0.962,0.918-1.745,2.077-2.33,3.482c-0.589,1.418-0.991,2.954-1.235,4.617c-0.232,1.673-0.355,3.272-0.355,4.802
	c0,1.502,0.123,3.103,0.38,4.776c0.245,1.686,0.659,3.233,1.245,4.674c0.586,1.433,1.368,2.616,2.345,3.545
	c0.978,0.927,2.199,1.39,3.653,1.39c1.479,0,2.747-0.439,3.823-1.319c1.075-0.891,1.955-2.023,2.625-3.417
	c0.686-1.405,1.186-2.942,1.503-4.644C695.602,214.875,695.76,213.2,695.76,211.555z M646.78,207.838
	c0,1.284,0.086,2.65,0.257,4.083c0.16,1.428,0.44,2.846,0.832,4.238c0.402,1.39,0.928,2.721,1.576,4.005
	c0.659,1.269,1.487,2.394,2.49,3.371c1.003,0.976,2.188,1.759,3.542,2.331c1.356,0.576,2.933,0.855,4.727,0.855
	c0.782,0,1.467-0.023,2.042-0.086c0.574-0.058,1.086-0.144,1.55-0.228c0.465-0.102,0.915-0.212,1.355-0.332
	c0.451-0.12,0.916-0.233,1.416-0.354v3.152c-0.708,0.183-1.38,0.377-2.002,0.549c-0.623,0.185-1.258,0.327-1.917,0.451
	c-0.647,0.121-1.357,0.207-2.113,0.281c-0.746,0.074-1.625,0.108-2.626,0.108c-2.601,0-4.96-0.4-7.06-1.222
	c-2.115-0.806-3.922-2.012-5.424-3.627c-1.502-1.611-2.675-3.612-3.493-6.033c-0.819-2.405-1.232-5.203-1.232-8.402
	c0-2.503,0.254-4.8,0.779-6.902c0.525-2.101,1.356-3.918,2.481-5.447c1.111-1.526,2.577-2.71,4.36-3.577
	c1.783-0.856,3.956-1.284,6.508-1.284c2.079,0,3.824,0.28,5.24,0.844c1.43,0.561,2.591,1.28,3.505,2.16
	c0.932,0.892,1.64,1.868,2.14,2.959c0.501,1.085,0.867,2.148,1.087,3.187c0.232,1.036,0.354,2.002,0.393,2.881
	c0.034,0.88,0.06,1.563,0.06,2.039H646.78z M661.598,204.615c0-0.748-0.074-1.575-0.234-2.491c-0.156-0.917-0.475-1.782-0.974-2.592
	c-0.503-0.817-1.234-1.49-2.176-2.028c-0.939-0.536-2.185-0.806-3.736-0.806c-1.052,0-1.956,0.147-2.737,0.452
	c-0.771,0.296-1.441,0.685-1.99,1.164c-0.537,0.475-1.002,1.013-1.367,1.61c-0.38,0.6-0.672,1.184-0.879,1.771
	c-0.221,0.588-0.367,1.137-0.454,1.662c-0.084,0.525-0.122,0.953-0.122,1.257H661.598z M626.261,197.921v20.678
	c0,1.027,0.024,2.029,0.085,3.006c0.062,0.977,0.282,1.845,0.673,2.592c0.38,0.754,0.978,1.366,1.783,1.828
	c0.808,0.468,1.967,0.697,3.469,0.697c0.904,0,1.601-0.034,2.077-0.12c0.475-0.085,0.88-0.184,1.221-0.305v3.651
	c-0.892,0.16-1.648,0.257-2.272,0.281c-0.634,0.022-1.319,0.034-2.064,0.034c-3.579,0-6.204-0.681-7.866-2.04
	c-1.673-1.354-2.501-3.614-2.501-6.764v-23.539h-6.158v-3.359h6.158v-8.195l5.396-3.298v11.493h9.515v3.359H626.261z
	 M601.015,229.447v-22.586c0-0.927-0.025-1.904-0.074-2.92c-0.05-1.011-0.22-1.941-0.537-2.781
	c-0.306-0.857-0.794-1.554-1.454-2.103c-0.647-0.549-1.588-0.818-2.81-0.818c-1.209,0-2.319,0.242-3.322,0.731
	c-1.003,0.492-1.893,1.149-2.688,1.994c-0.781,0.829-1.465,1.793-2.038,2.881c-0.576,1.074-1.053,2.221-1.432,3.432
	c-0.378,1.199-0.67,2.433-0.866,3.662c-0.183,1.25-0.279,2.421-0.279,3.546v14.962h-5.4v-34.886h5.252v8.587h0.148
	c0.524-1.098,1.159-2.211,1.893-3.332c0.744-1.125,1.611-2.125,2.613-3.02c1-0.904,2.163-1.624,3.493-2.185
	c1.319-0.563,2.846-0.844,4.557-0.844c1.526,0,2.82,0.296,3.873,0.88c1.051,0.588,1.904,1.33,2.574,2.233
	c0.66,0.907,1.149,1.896,1.443,2.969c0.306,1.075,0.452,2.103,0.452,3.08v26.517H601.015z M561.635,229.447v-50.566h6.083v50.566
	H561.635z M530.001,238.461h-4.764l0.793-16.354h6.585L530.001,238.461z M509.604,229.447v-50.566h5.436v50.566H509.604z
	 M492.333,229.447v-4.897l-0.146-0.012c-0.257,0.425-0.66,0.962-1.2,1.612c-0.534,0.646-1.219,1.268-2.039,1.879
	c-0.83,0.612-1.808,1.138-2.93,1.578c-1.137,0.439-2.431,0.656-3.885,0.656c-1.417,0-2.701-0.241-3.847-0.721
	c-1.161-0.474-2.163-1.108-2.992-1.93c-0.832-0.806-1.478-1.747-1.932-2.807c-0.452-1.05-0.684-2.176-0.684-3.335
	c0-1.724,0.33-3.176,1.002-4.375c0.673-1.184,1.549-2.187,2.648-3.004c1.1-0.806,2.347-1.44,3.739-1.903
	c1.404-0.466,2.822-0.833,4.275-1.102c1.466-0.257,2.882-0.439,4.264-0.537c1.391-0.085,2.625-0.171,3.725-0.245v-4.616
	c0-0.926-0.049-1.918-0.16-2.969c-0.108-1.047-0.365-2.028-0.793-2.92c-0.415-0.903-1.038-1.636-1.856-2.223
	c-0.819-0.583-1.969-0.88-3.42-0.88c-1.404,0-2.505,0.246-3.287,0.725c-0.794,0.476-1.39,1.059-1.793,1.771
	c-0.402,0.709-0.675,1.452-0.809,2.258c-0.12,0.793-0.219,1.525-0.268,2.198h-6.29c0.097-1.074,0.329-2.187,0.697-3.347
	c0.364-1.159,1.013-2.222,1.941-3.188c0.94-0.965,2.199-1.771,3.799-2.394c1.599-0.635,3.677-0.953,6.229-0.953
	c1.71,0,3.188,0.17,4.421,0.514c1.22,0.354,2.26,0.816,3.102,1.404c0.856,0.589,1.528,1.258,2.039,2.039
	c0.514,0.771,0.905,1.589,1.186,2.441c0.269,0.867,0.452,1.751,0.537,2.643c0.086,0.892,0.123,1.755,0.123,2.587v24.051H492.333z
	 M492.333,213.24c-0.306,0.023-0.868,0.047-1.686,0.086c-0.808,0.034-1.723,0.12-2.735,0.257c-1.014,0.132-2.077,0.338-3.188,0.646
	c-1.113,0.292-2.125,0.722-3.031,1.257c-0.904,0.549-1.66,1.246-2.261,2.103c-0.598,0.841-0.89,1.881-0.89,3.125
	c0,1.884,0.524,3.336,1.563,4.352c1.036,1.012,2.346,1.514,3.921,1.514c1.1,0,2.147-0.244,3.15-0.735
	c1.003-0.487,1.882-1.16,2.65-2.005c0.757-0.84,1.369-1.84,1.819-3.001c0.451-1.159,0.686-2.421,0.686-3.774V213.24z
	 M458.34,229.447v-22.586c0-0.927-0.023-1.904-0.074-2.92c-0.048-1.011-0.22-1.941-0.537-2.781
	c-0.305-0.857-0.794-1.554-1.454-2.103c-0.646-0.549-1.588-0.818-2.809-0.818c-1.209,0-2.319,0.242-3.323,0.731
	c-1,0.492-1.891,1.149-2.685,1.994c-0.783,0.829-1.468,1.793-2.041,2.881c-0.575,1.074-1.05,2.221-1.429,3.432
	c-0.38,1.199-0.672,2.433-0.869,3.662c-0.182,1.25-0.279,2.421-0.279,3.546v14.962h-5.4v-34.886h5.253v8.587h0.147
	c0.526-1.098,1.159-2.211,1.893-3.332c0.744-1.125,1.612-2.125,2.614-3.02c1-0.904,2.162-1.624,3.493-2.185
	c1.319-0.563,2.848-0.844,4.558-0.844c1.525,0,2.82,0.296,3.871,0.88c1.051,0.588,1.905,1.33,2.576,2.233
	c0.66,0.907,1.147,1.896,1.441,2.969c0.306,1.075,0.452,2.103,0.452,3.08v26.517H458.34z"/>
<path fill="#FFFFFF" d="M825.88,314.679v-50.566h5.437v50.566H825.88z M796.261,293.069c0,1.284,0.085,2.65,0.256,4.083
	c0.159,1.428,0.439,2.846,0.831,4.239c0.402,1.389,0.929,2.72,1.576,4.004c0.657,1.269,1.489,2.394,2.49,3.371
	c1.004,0.976,2.187,1.759,3.543,2.331c1.355,0.576,2.933,0.855,4.727,0.855c0.782,0,1.467-0.023,2.042-0.085
	c0.571-0.062,1.085-0.145,1.551-0.229c0.463-0.102,0.914-0.211,1.354-0.332c0.452-0.12,0.917-0.233,1.416-0.354v3.153
	c-0.709,0.183-1.379,0.376-2.002,0.549c-0.622,0.184-1.258,0.326-1.916,0.45c-0.649,0.121-1.357,0.207-2.115,0.281
	c-0.744,0.074-1.624,0.108-2.627,0.108c-2.599,0-4.958-0.4-7.058-1.222c-2.114-0.806-3.921-2.012-5.423-3.627
	c-1.505-1.611-2.675-3.612-3.496-6.033c-0.816-2.405-1.231-5.203-1.231-8.402c0-2.507,0.255-4.8,0.78-6.901s1.356-3.919,2.481-5.448
	c1.11-1.526,2.576-2.713,4.359-3.577c1.781-0.855,3.958-1.284,6.512-1.284c2.075,0,3.821,0.28,5.238,0.844
	c1.43,0.561,2.59,1.28,3.507,2.16c0.928,0.892,1.636,1.869,2.136,2.959c0.503,1.085,0.869,2.148,1.089,3.187
	c0.23,1.036,0.354,2.002,0.391,2.881c0.035,0.88,0.06,1.564,0.06,2.039H796.261z M811.076,289.847c0-0.747-0.072-1.575-0.232-2.49
	c-0.158-0.918-0.475-1.783-0.975-2.594c-0.503-0.815-1.234-1.489-2.177-2.026c-0.939-0.537-2.186-0.806-3.735-0.806
	c-1.051,0-1.956,0.146-2.736,0.451c-0.771,0.296-1.442,0.686-1.991,1.163c-0.537,0.477-1.002,1.013-1.368,1.612
	c-0.38,0.599-0.674,1.184-0.88,1.771c-0.22,0.585-0.365,1.136-0.453,1.662c-0.083,0.521-0.12,0.953-0.12,1.257H811.076z
	 M773.787,314.679h-5.08l-13.853-34.884h6.01l10.627,27.543l9.552-27.543h5.263L773.787,314.679z M738.903,273.71h-4.619l3.08-9.808
	h6.449L738.903,273.71z M743.094,314.679v-4.896l-0.146-0.016c-0.257,0.428-0.659,0.966-1.199,1.615
	c-0.537,0.646-1.22,1.268-2.039,1.88c-0.831,0.611-1.808,1.137-2.932,1.577c-1.136,0.439-2.43,0.656-3.885,0.656
	c-1.415,0-2.698-0.241-3.846-0.72c-1.162-0.475-2.164-1.108-2.994-1.931c-0.831-0.806-1.479-1.747-1.93-2.807
	c-0.451-1.05-0.683-2.175-0.683-3.335c0-1.724,0.328-3.175,0.999-4.375c0.674-1.184,1.554-2.187,2.651-3.004
	c1.1-0.806,2.346-1.44,3.739-1.903c1.403-0.466,2.821-0.832,4.274-1.102c1.465-0.257,2.883-0.439,4.262-0.536
	c1.394-0.086,2.628-0.172,3.728-0.246v-4.616c0-0.926-0.05-1.919-0.16-2.969c-0.109-1.052-0.366-2.028-0.794-2.92
	c-0.415-0.902-1.037-1.635-1.857-2.222c-0.818-0.584-1.965-0.88-3.419-0.88c-1.405,0-2.505,0.245-3.286,0.72
	c-0.795,0.479-1.392,1.062-1.794,1.774c-0.405,0.709-0.674,1.452-0.808,2.258c-0.123,0.794-0.219,1.525-0.27,2.198h-6.29
	c0.098-1.073,0.33-2.187,0.697-3.347c0.366-1.159,1.014-2.222,1.941-3.188c0.941-0.965,2.198-1.771,3.798-2.394
	c1.601-0.635,3.678-0.953,6.23-0.953c1.712,0,3.188,0.171,4.422,0.514c1.221,0.354,2.259,0.817,3.102,1.404
	c0.854,0.588,1.528,1.258,2.04,2.039c0.514,0.771,0.903,1.589,1.186,2.441c0.269,0.868,0.451,1.748,0.536,2.643
	c0.086,0.892,0.124,1.754,0.124,2.588v24.05H743.094z M743.094,298.472c-0.307,0.024-0.869,0.047-1.686,0.086
	c-0.808,0.035-1.724,0.121-2.737,0.257c-1.015,0.132-2.076,0.338-3.188,0.646c-1.112,0.292-2.123,0.721-3.029,1.258
	c-0.903,0.548-1.661,1.245-2.259,2.102c-0.599,0.841-0.894,1.88-0.894,3.125c0,1.88,0.526,3.336,1.565,4.349
	c1.037,1.015,2.345,1.514,3.921,1.514c1.1,0,2.148-0.242,3.15-0.732c1.002-0.486,1.883-1.16,2.651-2.005
	c0.757-0.84,1.368-1.84,1.818-3.001c0.454-1.159,0.687-2.421,0.687-3.775V298.472z M709.221,283.152v20.678
	c0,1.027,0.024,2.028,0.088,3.006c0.061,0.977,0.28,1.845,0.671,2.592c0.378,0.755,0.977,1.366,1.783,1.828
	c0.806,0.468,1.967,0.697,3.469,0.697c0.902,0,1.599-0.034,2.076-0.12c0.476-0.085,0.88-0.184,1.22-0.308v3.654
	c-0.891,0.16-1.647,0.257-2.271,0.281c-0.635,0.023-1.319,0.034-2.064,0.034c-3.578,0-6.203-0.681-7.866-2.039
	c-1.673-1.354-2.501-3.615-2.501-6.765v-23.539h-6.158v-3.357h6.158v-8.197l5.396-3.298v11.495h9.516v3.357H709.221z
	 M683.976,314.679v-22.586c0-0.927-0.025-1.903-0.074-2.92c-0.05-1.011-0.22-1.941-0.537-2.782
	c-0.306-0.856-0.795-1.553-1.454-2.102c-0.647-0.549-1.588-0.818-2.811-0.818c-1.209,0-2.319,0.242-3.321,0.733
	c-1,0.487-1.894,1.147-2.688,1.992c-0.78,0.829-1.466,1.794-2.039,2.88c-0.574,1.075-1.05,2.223-1.431,3.433
	c-0.377,1.195-0.669,2.43-0.866,3.662c-0.183,1.25-0.28,2.422-0.28,3.546v14.962h-5.399v-34.884h5.252v8.585h0.147
	c0.525-1.098,1.159-2.211,1.894-3.332c0.743-1.125,1.611-2.125,2.613-3.02c1.001-0.904,2.162-1.624,3.493-2.185
	c1.317-0.563,2.846-0.844,4.556-0.844c1.527,0,2.821,0.296,3.873,0.88c1.051,0.588,1.905,1.33,2.576,2.234
	c0.659,0.901,1.148,1.895,1.442,2.969c0.306,1.073,0.451,2.101,0.451,3.079v26.517H683.976z"/>
</svg>
